<svg width="65" height="61" viewBox="0 0 65 61" fill="none" xmlns="http://www.w3.org/2000/svg">
<path d="M45.6026 31.1559C45.1171 30.6991 45.0825 30.2073 45.5679 29.7154C45.8107 29.4695 45.984 29.1884 46.0881 28.8371C46.9549 28.2398 47.4751 27.3615 48.0992 26.5535C51.6361 21.8106 54.2715 16.4704 57.2189 11.3762C57.7044 10.5681 58.1205 9.76009 58.6059 8.95204C59.2301 7.89806 59.9236 6.87921 59.7155 5.54417C59.6462 5.12258 59.8196 4.66586 60.0623 4.2794C60.5824 3.43622 61.2066 2.69843 61.692 1.82012C61.9348 1.36339 62.3856 1.22286 62.9057 1.32826C63.4258 1.43366 63.5298 1.89038 63.5645 2.34711C63.5992 2.7687 63.7032 3.15516 63.8419 3.54162C64.258 4.73612 63.8419 5.93063 62.6976 6.38736C61.6227 6.80895 61.0679 7.617 60.5478 8.53045C57.531 13.7652 54.7223 19.0702 51.4628 24.1645C50.0757 26.3076 48.6194 28.4155 46.8856 30.3127C46.5388 30.7343 46.1921 31.1207 45.6026 31.1559Z" fill="#161F3D" stroke="#161F3D"/>
<path d="M4.51194 2.48776C4.72 2.52289 4.75467 2.41749 4.82402 2.34722C5.06675 2.1013 5.24013 1.57431 5.69091 1.82024C6.17637 2.06616 5.79494 2.41749 5.65624 2.73368C5.55221 3.01474 5.65624 3.19041 5.89897 3.4012C6.38442 3.78766 6.2804 4.34978 5.76026 4.38492C3.71441 4.63085 3.54103 6.24695 3.26362 7.75765C2.77817 10.3575 2.32738 12.9573 2.22336 15.5571C2.11933 18.1218 2.43141 20.6513 3.81843 22.9349C4.06116 23.3214 4.26921 23.7781 3.74908 24.0943C3.22895 24.3754 3.0209 23.8484 2.88219 23.5322C1.66855 20.9675 1.04439 18.2272 1.32179 15.3814C1.5992 12.3952 2.0153 9.44401 2.67414 6.56314C2.91687 5.61456 3.19427 4.56058 2.15401 3.75253C1.77257 3.43634 2.11933 2.76882 2.70882 2.80395C3.437 2.87421 3.54103 2.48776 3.5757 1.92563C3.5757 1.74997 3.64506 1.57431 3.71441 1.43378C3.81843 1.18785 3.99181 0.94192 4.30389 1.01219C4.5813 1.08245 4.54662 1.36351 4.54662 1.60944C4.47727 1.8905 4.33857 2.20669 4.51194 2.48776Z" fill="#161F3D" stroke="#161F3D"/>
<path d="M24.693 50.5139C37.907 50.5139 48.6191 39.6606 48.6191 26.2724C48.6191 12.8842 37.907 2.03088 24.693 2.03088C11.4789 2.03088 0.766846 12.8842 0.766846 26.2724C0.766846 39.6606 11.4789 50.5139 24.693 50.5139Z" fill="#7551F1"/>
<path d="M0.5896 54.6673L0.597318 54.6546L0.604267 54.6415C1.11857 53.6688 1.66794 52.7293 2.2236 51.7793L2.22361 51.7793L2.2256 51.7759C2.78092 50.8088 3.33616 49.8331 3.89083 48.8584L3.89099 48.8582C4.44588 47.8831 5.00021 46.909 5.55445 45.9438L5.56228 45.9302L5.56923 45.9161C5.62694 45.7992 5.71582 45.6495 5.80014 45.5356L5.80836 45.5245L5.81595 45.513C5.85 45.4612 5.87977 45.4277 5.90199 45.4076C5.90437 45.4055 5.9066 45.4035 5.90867 45.4018C5.91092 45.4032 5.91334 45.4048 5.91593 45.4065L5.91855 45.4083C5.91614 45.4165 5.91294 45.4263 5.90868 45.4375C5.89402 45.4761 5.87101 45.522 5.8396 45.5729L5.83373 45.5824L5.8283 45.5922C5.44823 46.2748 5.05932 46.9578 4.66902 47.6432L4.66838 47.6444C4.27902 48.3281 3.88827 49.0144 3.50599 49.701C3.03884 50.5248 2.57161 51.3401 2.10372 52.1566L2.10359 52.1568C1.63935 52.9669 1.17446 53.778 0.709481 54.598C0.679336 54.6419 0.647416 54.6914 0.622503 54.73C0.610854 54.7481 0.600737 54.7638 0.59305 54.7754C0.557302 54.8295 0.533941 54.8601 0.514185 54.881C0.509015 54.8865 0.504394 54.8909 0.500223 54.8946C0.500689 54.8712 0.509467 54.7992 0.5896 54.6673Z" fill="#161F3D" stroke="#161F3D"/>
<path d="M10.238 60.2407L10.2458 60.228L10.2527 60.2148C10.767 59.2421 11.3164 58.3027 11.872 57.3527L11.8721 57.3527L11.874 57.3492C12.4294 56.3822 12.9846 55.4064 13.5393 54.4317L13.5394 54.4315C14.0943 53.4564 14.6486 52.4824 15.2029 51.5172L15.2107 51.5036L15.2177 51.4895C15.2754 51.3726 15.3643 51.2229 15.4486 51.109L15.4568 51.0979L15.4644 51.0863C15.4984 51.0346 15.5282 51.0011 15.5504 50.981C15.5528 50.9789 15.555 50.9769 15.5571 50.9752C15.5594 50.9766 15.5618 50.9782 15.5644 50.9799L15.567 50.9817C15.5646 50.9899 15.5614 50.9996 15.5571 51.0108C15.5425 51.0495 15.5195 51.0953 15.488 51.1462L15.4822 51.1558L15.4767 51.1655C15.0967 51.8482 14.7078 52.5311 14.3175 53.2166L14.3168 53.2177C13.9275 53.9015 13.5367 54.5877 13.1544 55.2743C12.6873 56.0982 12.22 56.9135 11.7522 57.7299L11.752 57.7303C11.2877 58.5403 10.8229 59.3514 10.3579 60.1713C10.3278 60.2153 10.2959 60.2648 10.2709 60.3034C10.2593 60.3215 10.2492 60.3371 10.2415 60.3488C10.2057 60.4029 10.1824 60.4335 10.1626 60.4544C10.1575 60.4598 10.1528 60.4643 10.1487 60.468C10.1491 60.4445 10.1579 60.3726 10.238 60.2407Z" fill="#161F3D" stroke="#161F3D"/>
<path d="M4.04944 60.9577C3.45995 60.9577 3.28657 60.4659 3.59865 59.9037C4.43087 58.4282 5.26308 56.9526 6.09529 55.5122C6.82348 54.2474 7.55167 52.9826 8.24518 51.7179C8.45323 51.3665 8.66129 51.0152 9.11207 51.226C9.6322 51.5071 9.3548 51.9286 9.18142 52.28C7.65569 54.9852 6.09529 57.6904 4.56957 60.3956C4.43087 60.6415 4.29217 60.9226 4.04944 60.9577Z" fill="#161F3D"/>
<path fill-rule="evenodd" clip-rule="evenodd" d="M23.9827 14.7738C24.5705 15.2555 24.6608 16.1276 24.1843 16.7218C23.6534 17.3839 23.4601 18.3748 23.7774 19.5764C24.0942 20.7763 24.905 22.0772 26.1886 23.129C27.4721 24.1809 28.8989 24.7137 30.1257 24.7787C31.3543 24.8439 32.2733 24.4478 32.8042 23.7857C33.2807 23.1915 34.1435 23.1003 34.7312 23.582C35.319 24.0637 35.4093 24.9359 34.9328 25.5301C33.7138 27.0502 31.8455 27.6437 29.9822 27.5449C28.1173 27.4461 26.1476 26.6613 24.463 25.2808C22.7785 23.9004 21.6115 22.1147 21.1299 20.2906C20.6488 18.4682 20.8367 16.4976 22.0557 14.9775C22.5322 14.3833 23.395 14.2921 23.9827 14.7738Z" fill="white"/>
<path d="M31.3237 11.7614C31.4781 12.4855 31.4269 13.2493 31.097 14.0024C30.8689 14.4989 30.6543 14.605 30.2154 14.3021C29.6623 13.9567 29.1823 13.6617 29.4482 12.7918C29.7126 12.0298 29.3283 11.3286 28.67 10.8743C28.0117 10.4199 27.3065 10.4055 26.5956 10.8229C26.0583 11.1422 24.124 11.0423 24.6958 9.98392C25.2677 8.92555 27.1847 8.46876 28.2556 8.73564C29.7438 9.07262 30.9906 10.2964 31.3237 11.7614Z" fill="white"/>
<path d="M40.7036 18.2507C40.858 18.9748 40.8068 19.7386 40.4769 20.4917C40.2488 20.9882 40.0341 21.0943 39.5953 20.7914C39.0422 20.4459 38.5622 20.151 38.8281 19.281C39.0925 18.5191 38.7081 17.8179 38.0499 17.3635C37.3916 16.9092 36.6864 16.8947 35.9755 17.3122C35.4381 17.6315 33.5039 17.5315 34.0757 16.4732C34.6475 15.4148 36.5646 14.958 37.6355 15.2249C39.1237 15.5619 40.3705 16.7856 40.7036 18.2507Z" fill="white"/>
</svg>
