<svg width="120" height="106" viewBox="0 0 120 106" fill="none" xmlns="http://www.w3.org/2000/svg">
<path d="M11.1245 41.053C10.5326 40.3871 9.71152 40.0204 8.8125 40.0204C7.54809 40.0204 6.74759 40.7691 6.29871 41.3972C6.18225 41.5602 6.08318 41.7237 6 41.8775C5.91682 41.7237 5.81777 41.5602 5.70129 41.3972C5.25241 40.7691 4.45191 40.0204 3.1875 40.0204C2.28848 40.0204 1.4674 40.3871 0.875508 41.053C0.310945 41.6882 0 42.5389 0 43.4484C0 44.4384 0.389836 45.3592 1.22684 46.3462C1.97489 47.2283 3.05107 48.1376 4.29727 49.1905C4.76163 49.5828 5.24184 49.9886 5.75309 50.4321L5.76844 50.4454C5.83472 50.5029 5.91736 50.5317 6 50.5317C6.08264 50.5317 6.16528 50.5029 6.23156 50.4454L6.24691 50.4321C6.75816 49.9886 7.23837 49.5828 7.70281 49.1904C8.94893 48.1376 10.0251 47.2283 10.7732 46.3462C11.6102 45.3592 12 44.4384 12 43.4484C12 42.5389 11.6891 41.6882 11.1245 41.053Z" fill="#161F3D"/>
<path d="M51.7573 1.56383C50.8609 0.555369 49.6174 0 48.2558 0C46.3408 0 45.1285 1.13397 44.4486 2.08527C44.2723 2.33213 44.1222 2.57965 43.9962 2.81257C43.8703 2.57965 43.7203 2.33213 43.5438 2.08527C42.864 1.13397 41.6516 0 39.7367 0C38.3751 0 37.1316 0.555404 36.2351 1.56387C35.3801 2.52587 34.9092 3.81427 34.9092 5.19171C34.9092 6.69111 35.4996 8.08569 36.7672 9.58047C37.9002 10.9165 39.5301 12.2935 41.4174 13.8882C42.1207 14.4824 42.848 15.0969 43.6223 15.7686L43.6455 15.7888C43.7459 15.8759 43.8711 15.9195 43.9962 15.9195C44.1214 15.9195 44.2466 15.8759 44.3469 15.7888L44.3702 15.7686C45.1445 15.0969 45.8718 14.4824 46.5752 13.8881C48.4624 12.2936 50.0923 10.9165 51.2252 9.58047C52.4929 8.08565 53.0833 6.69111 53.0833 5.19171C53.0833 3.81427 52.6124 2.52587 51.7573 1.56383Z" fill="#161F3D"/>
<path d="M118.806 20.8774C117.999 19.9694 116.879 19.4694 115.654 19.4694C113.929 19.4694 112.838 20.4904 112.226 21.3469C112.067 21.5692 111.932 21.792 111.818 22.0017C111.705 21.792 111.57 21.5692 111.411 21.3469C110.799 20.4904 109.707 19.4694 107.983 19.4694C106.757 19.4694 105.637 19.9694 104.83 20.8774C104.06 21.7436 103.636 22.9037 103.636 24.1439C103.636 25.4939 104.168 26.7496 105.309 28.0954C106.33 29.2983 107.797 30.5382 109.496 31.974C110.13 32.509 110.784 33.0623 111.482 33.6671L111.503 33.6853C111.593 33.7637 111.706 33.8029 111.818 33.8029C111.931 33.8029 112.044 33.7637 112.134 33.6853L112.155 33.6671C112.852 33.0623 113.507 32.5091 114.14 31.9739C115.84 30.5383 117.307 29.2984 118.327 28.0954C119.469 26.7495 120 25.4939 120 24.1439C120 22.9037 119.576 21.7436 118.806 20.8774Z" fill="#161F3D"/>
<path d="M26.4767 22.5714C25.9386 21.9661 25.1922 21.6327 24.3749 21.6327C23.2254 21.6327 22.4977 22.3134 22.0896 22.8844C21.9838 23.0326 21.8937 23.1811 21.8181 23.3209C21.7425 23.1811 21.6524 23.0326 21.5465 22.8844C21.1384 22.3134 20.4107 21.6327 19.2613 21.6327C18.444 21.6327 17.6975 21.9661 17.1594 22.5714C16.6462 23.1489 16.3635 23.9222 16.3635 24.749C16.3635 25.6491 16.7179 26.4862 17.4788 27.3834C18.1589 28.1853 19.1372 29.0119 20.2701 29.9691C20.6923 30.3258 21.1288 30.6947 21.5936 31.0978L21.6076 31.11C21.6678 31.1623 21.7429 31.1884 21.8181 31.1884C21.8932 31.1884 21.9683 31.1623 22.0286 31.11L22.0425 31.0978C22.5073 30.6947 22.9439 30.3258 23.3661 29.9691C24.4989 29.012 25.4773 28.1854 26.1573 27.3834C26.9182 26.4861 27.2726 25.6491 27.2726 24.749C27.2726 23.9222 26.9899 23.1489 26.4767 22.5714Z" fill="#161F3D"/>
<path d="M89.9906 5.49012C89.3236 4.73977 88.3984 4.32654 87.3853 4.32654C85.9604 4.32654 85.0584 5.17028 84.5525 5.87811C84.4213 6.06178 84.3096 6.24596 84.2159 6.41926C84.1222 6.24596 84.0106 6.06178 83.8793 5.87811C83.3735 5.17028 82.4714 4.32654 81.0465 4.32654C80.0335 4.32654 79.1082 4.73979 78.4412 5.49015C77.805 6.20594 77.4546 7.16459 77.4546 8.18949C77.4546 9.30513 77.8939 10.3428 78.8371 11.455C79.6801 12.449 80.8928 13.4737 82.2971 14.6602C82.8204 15.1023 83.3616 15.5595 83.9377 16.0593L83.955 16.0744C84.0297 16.1392 84.1228 16.1716 84.2159 16.1716C84.309 16.1716 84.4022 16.1392 84.4769 16.0744L84.4942 16.0593C85.0703 15.5595 85.6114 15.1023 86.1348 14.6601C87.539 13.4737 88.7518 12.4491 89.5947 11.455C90.5379 10.3428 90.9772 9.30513 90.9772 8.18949C90.9772 7.16459 90.6268 6.20594 89.9906 5.49012Z" fill="#161F3D"/>
<g clip-path="url(#clip0)">
<path d="M86.5746 54.6279C86.5746 40.442 74.9939 28.927 60.727 28.927C46.46 28.927 34.9092 40.442 34.9092 54.6279C34.9092 54.7763 34.9092 54.895 34.9092 55.0434C34.9092 55.1621 34.9092 55.3105 34.9092 55.4292C34.9092 57.0021 35.0883 58.486 35.4464 59.9699C35.4763 60.1183 35.536 60.2667 35.5658 60.4151C37.088 66.9145 41.0577 72.4642 46.4899 76.0552C46.4899 76.2036 46.46 76.3817 46.4003 76.5894C45.5049 79.2307 44.7587 81.9611 43.7141 84.5431C42.9978 86.3534 43.9827 87.4515 44.6394 88.7573C46.2213 91.9328 47.8629 95.049 49.5343 98.1948C49.9522 98.9664 50.37 99.738 50.7879 100.539C51.146 101.222 51.0267 101.459 50.2208 101.489C49.206 101.489 48.1912 101.489 47.1764 101.489C45.9228 101.519 45.0274 102.498 45.0274 103.774C45.0274 104.961 45.9526 106 47.1465 106.03C49.8626 106.059 52.5787 106.03 55.2649 106.059C55.653 106.059 55.8022 105.911 55.8022 105.525C55.8022 104.219 55.8022 102.914 55.8022 101.608C55.8022 101.103 55.5037 100.717 55.2948 100.302C53.7427 97.3045 52.1608 94.3367 50.5789 91.3689C49.7432 89.796 48.9374 88.1934 48.0718 86.6205C47.8629 86.205 47.9524 85.8489 48.0718 85.4631C48.8478 83.1185 49.6537 80.774 50.4297 78.3998C50.4596 78.3404 50.4596 78.2811 50.4894 78.2514C53.6234 79.6166 57.1155 80.3585 60.7568 80.3585C64.2489 80.3585 67.5918 79.6759 70.6362 78.4294C71.4123 80.1804 72.2181 81.9017 72.9942 83.623C73.1733 84.0089 73.1434 84.365 72.9046 84.7508C71.4421 87.2437 70.0393 89.7367 68.5768 92.2296C66.9352 95.0786 65.2638 97.9277 63.5923 100.777C63.5326 100.866 63.4431 100.925 63.4431 101.014C63.2938 102.587 63.3237 104.16 63.3834 105.733C63.3834 106.03 63.652 106.03 63.8908 106.03C66.6069 106.03 69.323 106.059 72.0092 106C73.1136 105.97 74.1284 105.021 74.0388 103.626C73.9791 102.409 73.1434 101.519 71.9495 101.489C70.9347 101.459 69.9199 101.489 68.9051 101.459C68.0992 101.459 67.9798 101.222 68.3679 100.539C69.8602 97.9574 71.3227 95.3457 72.8151 92.7935C74.2776 90.2709 75.7401 87.7482 77.2922 85.2553C77.8593 84.3353 77.6503 83.5637 77.2623 82.703C76.3072 80.6256 75.3521 78.5482 74.3671 76.5004C81.6797 71.9597 86.5746 63.8577 86.5746 54.6279Z" fill="#FF9776"/>
<path d="M65.9801 36.6431C67.1175 36.6431 68.0396 35.7263 68.0396 34.5954C68.0396 33.4644 67.1175 32.5476 65.9801 32.5476C64.8427 32.5476 63.9207 33.4644 63.9207 34.5954C63.9207 35.7263 64.8427 36.6431 65.9801 36.6431Z" fill="white"/>
<path d="M57.6826 33.7051C58.2199 34.2097 58.6079 34.8626 58.7571 35.6639C58.8467 36.1981 58.7273 36.4058 58.19 36.4058C57.5334 36.4355 56.9663 36.4652 56.6977 35.6045C56.4887 34.8329 55.7724 34.4768 54.9665 34.4768C54.1607 34.4768 53.5637 34.8626 53.2056 35.6045C52.9369 36.1684 51.2655 37.1774 51.1461 35.9903C51.0267 34.8032 52.3698 33.349 53.4145 32.9632C54.8472 32.3993 56.5783 32.6961 57.6826 33.7051Z" fill="white"/>
<path fill-rule="evenodd" clip-rule="evenodd" d="M50.4712 41.2217C50.8867 41.2217 51.2236 41.5556 51.2236 41.9674C51.2236 43.7096 52.2038 45.3527 53.9214 46.5883C55.6382 47.8233 58.0472 48.6101 60.742 48.6101C63.4368 48.6101 65.8458 47.8233 67.5626 46.5883C69.2802 45.3527 70.2604 43.7096 70.2604 41.9674C70.2604 41.5556 70.5973 41.2217 71.0129 41.2217C71.4284 41.2217 71.7653 41.5556 71.7653 41.9674C71.7653 44.3057 70.4463 46.3568 68.4466 47.7953C66.446 49.2344 63.7196 50.1015 60.742 50.1015C57.7644 50.1015 55.038 49.2344 53.0375 47.7953C51.0377 46.3568 49.7188 44.3057 49.7188 41.9674C49.7188 41.5556 50.0556 41.2217 50.4712 41.2217Z" fill="white"/>
</g>
<defs>
<clipPath id="clip0">
<rect width="51.6655" height="80.0408" fill="white" transform="translate(34.9092 25.9592)"/>
</clipPath>
</defs>
</svg>
