<svg width="81" height="89" viewBox="0 0 81 89" fill="none" xmlns="http://www.w3.org/2000/svg">
<path d="M39.2476 41.3903C38.9929 40.8789 39.1127 40.474 39.6522 40.2242C39.9219 40.0994 40.1462 39.9256 40.3357 39.6748C41.2147 39.4544 41.8982 38.905 42.6446 38.443C46.9234 35.6934 50.654 32.1955 54.5625 28.9881C55.197 28.4847 55.7755 27.9606 56.4099 27.4572C57.2302 26.7978 58.0958 26.1874 58.3288 25.0542C58.3994 24.6952 58.6765 24.3805 58.9885 24.1429C59.6614 23.6217 60.3867 23.216 61.0423 22.6562C61.3753 22.3623 61.7814 22.3841 62.1695 22.6239C62.5576 22.8637 62.5045 23.2612 62.3953 23.638C62.2967 23.9867 62.2646 24.3278 62.2605 24.6793C62.2376 25.7619 61.5431 26.5961 60.4824 26.6209C59.4882 26.6383 58.7978 27.121 58.1037 27.6986C54.097 30.9981 50.2371 34.416 46.0767 37.5303C44.3137 38.8357 42.5053 40.0922 40.5363 41.0968C40.1298 41.3315 39.7339 41.5381 39.2476 41.3903Z" fill="#161F3D" stroke="#161F3D" stroke-width="2"/>
<g clip-path="url(#clip0)">
<path d="M47.7474 41.67C47.7474 28.6002 37.0449 17.9913 23.8599 17.9913C10.6749 17.9913 0 28.6002 0 41.67C0 41.8067 0 41.9161 0 42.0528C0 42.1621 0 42.2989 0 42.4082C0 43.8574 0.165502 45.2245 0.496506 46.5916C0.52409 46.7284 0.579257 46.8651 0.606841 47.0018C2.01361 52.9898 5.68224 58.1029 10.7025 61.4113C10.7025 61.548 10.6749 61.7121 10.6197 61.9035C9.79221 64.337 9.10262 66.8525 8.13719 69.2313C7.47518 70.8992 8.38544 71.9108 8.99228 73.1139C10.4542 76.0396 11.9713 78.9105 13.516 81.8088C13.9022 82.5197 14.2884 83.2307 14.6745 83.9689C15.0055 84.5978 14.8952 84.8165 14.1504 84.8439C13.2126 84.8439 12.2747 84.8439 11.3369 84.8439C10.1784 84.8712 9.35087 85.7735 9.35087 86.9492C9.35087 88.0429 10.206 88.9999 11.3093 89.0273C13.8194 89.0546 16.3295 89.0273 18.8121 89.0546C19.1707 89.0546 19.3086 88.9179 19.3086 88.5625C19.3086 87.3594 19.3086 86.1563 19.3086 84.9532C19.3086 84.4884 19.0327 84.133 18.8397 83.7502C17.4053 80.9886 15.9434 78.2543 14.4814 75.5201C13.7091 74.0709 12.9643 72.5944 12.1644 71.1452C11.9713 70.7625 12.0541 70.4343 12.1644 70.0789C12.8816 67.9188 13.6263 65.7588 14.3435 63.5714C14.3711 63.5167 14.3711 63.462 14.3987 63.4347C17.295 64.6924 20.5223 65.376 23.8875 65.376C27.1148 65.376 30.2041 64.7471 33.0177 63.5987C33.7349 65.2119 34.4796 66.7978 35.1968 68.3837C35.3623 68.7391 35.3347 69.0672 35.114 69.4227C33.7624 71.7194 32.466 74.0162 31.1144 76.313C29.5973 78.9379 28.0526 81.5628 26.5079 84.1876C26.4528 84.2697 26.37 84.3244 26.37 84.4064C26.2321 85.8555 26.2597 87.3047 26.3148 88.7538C26.3148 89.0273 26.5631 89.0273 26.7838 89.0273C29.2939 89.0273 31.804 89.0546 34.2865 88.9999C35.3071 88.9726 36.245 88.0976 36.1622 86.8125C36.107 85.6915 35.3347 84.8712 34.2314 84.8439C33.2935 84.8165 32.3557 84.8439 31.4178 84.8165C30.6731 84.8165 30.5627 84.5978 30.9213 83.9689C32.3005 81.5901 33.6521 79.184 35.0313 76.8325C36.3829 74.5084 37.7345 72.1843 39.1688 69.8875C39.6929 69.0399 39.4998 68.329 39.1413 67.536C38.2586 65.6221 37.3759 63.7081 36.4656 61.8214C43.2236 57.638 47.7474 50.1735 47.7474 41.67Z" fill="#7551F1"/>
<path fill-rule="evenodd" clip-rule="evenodd" d="M17.6382 29.8683C18.2782 29.8683 18.7971 30.381 18.7971 31.0134C18.7971 31.8964 19.2939 32.7969 20.3018 33.5197C21.3085 34.2416 22.7566 34.7234 24.4083 34.7234C26.06 34.7234 27.5081 34.2416 28.5148 33.5197C29.5227 32.7969 30.0195 31.8964 30.0195 31.0134C30.0195 30.381 30.5384 29.8683 31.1784 29.8683C31.8185 29.8683 32.3374 30.381 32.3374 31.0134C32.3374 32.8117 31.3187 34.3388 29.8763 35.3732C28.4326 36.4085 26.4956 37.0136 24.4083 37.0136C22.321 37.0136 20.384 36.4085 18.9404 35.3732C17.4979 34.3388 16.4792 32.8117 16.4792 31.0134C16.4792 30.381 16.9981 29.8683 17.6382 29.8683Z" fill="white"/>
<path d="M21.0465 22.3934C21.543 22.8583 21.9016 23.4598 22.0395 24.1981C22.1222 24.6902 22.0119 24.8816 21.5154 24.8816C20.9086 24.909 20.3845 24.9363 20.1362 24.1434C19.9431 23.4325 19.2811 23.1044 18.5364 23.1044C17.7916 23.1044 17.2399 23.4598 16.9089 24.1434C16.6607 24.6629 15.116 25.5925 15.0056 24.4988C14.8953 23.4051 16.1366 22.0653 17.102 21.7099C18.426 21.1904 20.0259 21.4638 21.0465 22.3934Z" fill="white"/>
<path d="M33.0992 22.3934C33.5957 22.8583 33.9543 23.4598 34.0922 24.1981C34.175 24.6902 34.0646 24.8816 33.5681 24.8816C32.9613 24.909 32.4372 24.9363 32.1889 24.1434C31.9959 23.4325 31.3339 23.1044 30.5891 23.1044C29.8443 23.1044 29.2927 23.4598 28.9617 24.1434C28.7134 24.6629 27.1687 25.5925 27.0584 24.4988C26.948 23.4051 28.1893 22.0653 29.1547 21.7099C30.4788 21.1904 32.0786 21.4638 33.0992 22.3934Z" fill="white"/>
</g>
<path d="M77.4736 18.6269C77.4736 19.841 76.3402 20.6056 75.1119 20.6056H75.1024C76.0191 20.7617 77.1078 21.8574 77.1078 22.921C77.1078 24.09 75.983 24.8198 74.7993 24.8198H73.781C74.5828 25.0484 75.6591 26.113 75.6591 27.1353C75.6591 28.3297 74.5277 29.0792 73.3231 29.0792H63.0546C59.6727 29.0792 56.9338 26.3641 56.9338 23.016C56.9338 23.016 56.9338 16.5531 56.9338 16.5456C56.9338 14.1738 58.2591 11.6655 60.3443 10.8633C61.9697 9.80434 65.2367 7.91682 65.9331 4.4211C65.9331 3.05836 65.9331 1.77932 65.9331 1.77932C65.9331 1.77932 70.4997 1.29028 70.4997 5.54026C70.4997 10.5454 67.3191 11.358 69.848 11.4784H73.629C74.9646 11.4784 76.1189 12.7668 76.1189 14.0919C76.1189 15.2365 75.0226 15.9785 74.1059 16.2117H75.1119C76.3402 16.2127 77.4736 17.4137 77.4736 18.6269Z" fill="#7551F1"/>
<defs>
<clipPath id="clip0">
<rect width="47.7474" height="73.7429" fill="white" transform="translate(0 15.2571)"/>
</clipPath>
</defs>
</svg>
