<svg width="77" height="80" viewBox="0 0 77 80" fill="none" xmlns="http://www.w3.org/2000/svg">
<g clip-path="url(#clip0)">
<path d="M76.9239 28.6541C76.9239 14.4754 65.4922 2.96631 51.4088 2.96631C37.3254 2.96631 25.9231 14.4754 25.9231 28.6541C25.9231 28.8024 25.9231 28.9211 25.9231 29.0694C25.9231 29.188 25.9231 29.3364 25.9231 29.455C25.9231 31.0271 26.0999 32.5102 26.4534 33.9934C26.4829 34.1417 26.5418 34.29 26.5713 34.4383C28.0739 40.9344 31.9925 46.4813 37.3548 50.0705C37.3548 50.2188 37.3254 50.3968 37.2664 50.6044C36.3825 53.2444 35.646 55.9734 34.6147 58.554C33.9076 60.3634 34.8799 61.4609 35.5281 62.7661C37.0896 65.94 38.7101 69.0546 40.3601 72.1988C40.7725 72.97 41.185 73.7412 41.5975 74.5421C41.9511 75.2244 41.8332 75.4617 41.0377 75.4913C40.036 75.4913 39.0342 75.4913 38.0325 75.4913C36.795 75.521 35.9111 76.4999 35.9111 77.7754C35.9111 78.9619 36.8245 80 38.003 80.0297C40.6842 80.0594 43.3653 80.0297 46.017 80.0594C46.4 80.0594 46.5473 79.9111 46.5473 79.5255C46.5473 78.2203 46.5473 76.9151 46.5473 75.61C46.5473 75.1057 46.2527 74.7201 46.0465 74.3048C44.5144 71.3089 42.9528 68.3427 41.3913 65.3764C40.5663 63.8043 39.7708 62.2025 38.9164 60.6304C38.7101 60.2151 38.7985 59.8592 38.9164 59.4735C39.6824 57.1302 40.4779 54.7868 41.244 52.4138C41.2734 52.3545 41.2734 52.2952 41.3029 52.2655C44.3965 53.63 47.8437 54.3716 51.4382 54.3716C54.8854 54.3716 58.1853 53.6893 61.1905 52.4435C61.9566 54.1936 62.7521 55.914 63.5181 57.6345C63.6949 58.0201 63.6655 58.376 63.4297 58.7616C61.986 61.2533 60.6013 63.745 59.1576 66.2366C57.5371 69.0842 55.8872 71.9318 54.2372 74.7794C54.1783 74.8684 54.0899 74.9277 54.0899 75.0167C53.9426 76.5889 53.9721 78.161 54.031 79.7331C54.031 80.0297 54.2962 80.0297 54.5319 80.0297C57.213 80.0297 59.8942 80.0594 62.5458 80.0001C63.636 79.9704 64.6377 79.0212 64.5493 77.627C64.4904 76.4109 63.6654 75.521 62.4869 75.4913C61.4852 75.4617 60.4834 75.4913 59.4817 75.4617C58.6862 75.4617 58.5683 75.2244 58.9513 74.5421C60.4245 71.9615 61.8682 69.3512 63.3414 66.8002C64.785 64.2789 66.2287 61.7576 67.7608 59.2659C68.3206 58.3464 68.1144 57.5751 67.7314 56.7149C66.7885 54.6385 65.8457 52.5622 64.8734 50.5154C72.0919 45.9771 76.9239 37.8792 76.9239 28.6541Z" fill="#66C9D2"/>
<path d="M56.5942 10.6785C57.717 10.6785 58.6272 9.76217 58.6272 8.6318C58.6272 7.50143 57.717 6.58508 56.5942 6.58508C55.4715 6.58508 54.5613 7.50143 54.5613 8.6318C54.5613 9.76217 55.4715 10.6785 56.5942 10.6785Z" fill="white"/>
<path d="M48.4036 7.74184C48.934 8.24611 49.317 8.89868 49.4643 9.69957C49.5527 10.2335 49.4348 10.4411 48.9045 10.4411C48.2563 10.4708 47.6965 10.5005 47.4313 9.64025C47.2251 8.86902 46.518 8.51307 45.7225 8.51307C44.927 8.51307 44.3377 8.89868 43.9841 9.64025C43.719 10.2038 42.069 11.2124 41.9512 10.0259C41.8333 8.83936 43.1592 7.38589 44.1904 7.00028C45.6046 6.43669 47.3135 6.73332 48.4036 7.74184Z" fill="white"/>
<path fill-rule="evenodd" clip-rule="evenodd" d="M51.7306 24.0956C54.2525 24.0956 55.5188 22.4125 55.5188 21.2308C55.5188 20.0491 54.2525 18.366 51.7306 18.366C49.2087 18.366 47.9424 20.0491 47.9424 21.2308C47.9424 22.4125 49.2087 24.0956 51.7306 24.0956ZM51.7306 27.077C55.4636 27.077 58.4897 24.4595 58.4897 21.2308C58.4897 18.0021 55.4636 15.3846 51.7306 15.3846C47.9976 15.3846 44.9714 18.0021 44.9714 21.2308C44.9714 24.4595 47.9976 27.077 51.7306 27.077Z" fill="white"/>
</g>
<path d="M5.09311 41.8758C5.35511 42.2009 5.28092 42.3305 5.28142 42.4944C5.28317 43.0681 4.91226 43.7158 5.6598 44.3054C6.44481 44.9531 6.40485 44.0754 6.58993 43.6286C6.77526 43.2637 7.07373 43.3193 7.55927 43.5836C8.49314 44.1362 8.97619 43.581 8.45144 42.6848C6.50155 39.0866 8.02613 37.7013 9.32667 36.2129C11.5561 33.638 13.823 31.1212 16.4645 29.186C19.0688 27.2746 22.0855 26.085 26.0031 26.8649C26.6747 27.0103 27.3833 27.05 27.1562 25.9634C26.892 24.9006 26.109 24.9086 25.6242 24.89C21.5962 24.5912 18.0191 25.4002 15.3044 27.7927C12.4408 30.2804 9.76428 32.977 7.42446 36.0331C6.6819 37.0827 5.86516 38.2618 3.88528 37.0641C3.13823 36.6385 2.80579 37.6722 3.4799 38.6371C4.34108 39.811 4.0441 40.2472 3.48613 40.686C3.30005 40.805 3.1889 41.0403 3.11497 41.2518C2.96686 41.5928 2.89367 42.0502 3.30528 42.5261C3.67943 42.9438 3.93968 42.6953 4.20019 42.5287C4.42298 42.2221 4.60806 41.7753 5.09311 41.8758Z" fill="white"/>
<path d="M76.4648 24.0659C76.9291 24.8543 76.7452 25.4054 75.8325 25.6391C75.3761 25.7559 75.0003 25.9529 74.6884 26.268C73.1914 26.3824 72.0473 27.0113 70.7908 27.5011C63.5926 30.4528 57.3754 34.5981 50.8372 38.2881C49.7749 38.8625 48.8099 39.4792 47.7476 40.0535C46.3748 40.8082 44.9214 41.4827 44.5818 43.0481C44.4796 43.5446 44.0208 43.9309 43.498 44.1992C42.3705 44.7902 41.1472 45.2042 40.0517 45.8543C39.4957 46.1983 38.7976 46.0746 38.1186 45.6436C37.4397 45.2126 37.5098 44.6571 37.6772 44.1438C37.8279 43.6684 37.8648 43.1886 37.8532 42.6875C37.8348 41.1466 38.9826 40.1136 40.8019 40.3198C42.5074 40.5215 43.6668 39.9895 44.8275 39.3227C51.5293 35.5237 57.9729 31.522 64.9484 28.0224C67.905 26.5599 70.9422 25.1775 74.2685 24.1915C74.9537 23.9488 75.6223 23.7441 76.4648 24.0659Z" fill="white"/>
<path d="M37.8788 42.215C37.9488 41.655 38.0012 41.095 38.0012 40.5C38.0012 39.905 37.9488 39.345 37.8788 38.785L41.5665 35.8975C41.8985 35.635 41.9859 35.1625 41.7762 34.7775L38.2808 28.7225C38.0711 28.3375 37.5992 28.1975 37.2147 28.3375L32.863 30.0875C31.9542 29.3875 30.9755 28.81 29.9094 28.3725L29.2453 23.735C29.1928 23.315 28.8258 23 28.3889 23H21.3981C20.9612 23 20.5942 23.315 20.5418 23.735L19.8776 28.3725C18.8115 28.81 17.8328 29.405 16.924 30.0875L12.5723 28.3375C12.1703 28.18 11.7159 28.3375 11.5062 28.7225L8.01082 34.7775C7.78362 35.1625 7.88848 35.635 8.22054 35.8975L11.9082 38.785C11.8383 39.345 11.7858 39.9225 11.7858 40.5C11.7858 41.0775 11.8383 41.655 11.9082 42.215L8.22054 45.1025C7.88848 45.365 7.8011 45.8375 8.01082 46.2225L11.5062 52.2775C11.7159 52.6625 12.1878 52.8025 12.5723 52.6625L16.924 50.9125C17.8328 51.6125 18.8115 52.19 19.8776 52.6275L20.5418 57.265C20.5942 57.685 20.9612 58 21.3981 58H28.3889C28.8258 58 29.1928 57.685 29.2453 57.265L29.9094 52.6275C30.9755 52.19 31.9542 51.595 32.863 50.9125L37.2147 52.6625C37.6167 52.82 38.0711 52.6625 38.2808 52.2775L41.7762 46.2225C41.9859 45.8375 41.8985 45.365 41.5665 45.1025L37.8788 42.215ZM24.8935 46.625C21.5205 46.625 18.7766 43.8775 18.7766 40.5C18.7766 37.1225 21.5205 34.375 24.8935 34.375C28.2666 34.375 31.0104 37.1225 31.0104 40.5C31.0104 43.8775 28.2666 46.625 24.8935 46.625Z" fill="#161F3D"/>
<defs>
<clipPath id="clip0">
<rect width="51.0008" height="80" fill="white" transform="translate(25.9231)"/>
</clipPath>
</defs>
</svg>
