<svg width="110" height="103" viewBox="0 0 110 103" fill="none" xmlns="http://www.w3.org/2000/svg">
<path d="M77.6673 51.8059C76.8405 51.0365 76.7814 50.2078 77.6082 49.3791C78.0216 48.9648 78.3169 48.4913 78.4941 47.8994C79.9705 46.8931 80.8563 45.4134 81.9194 44.052C87.9432 36.0614 92.4315 27.0645 97.4514 18.4819C98.2782 17.1205 98.9869 15.7591 99.8137 14.3978C100.877 12.6221 102.058 10.9056 101.703 8.65633C101.585 7.94605 101.881 7.17658 102.294 6.52549C103.18 5.10493 104.243 3.86193 105.07 2.38218C105.483 1.61271 106.251 1.37595 107.137 1.55352C108.023 1.73109 108.2 2.50056 108.259 3.27003C108.318 3.98031 108.495 4.63141 108.731 5.2825C109.44 7.29496 108.731 9.30742 106.782 10.0769C104.952 10.7872 104.007 12.1486 103.121 13.6875C97.9829 22.5068 93.1993 31.4445 87.6479 40.0271C85.2856 43.6377 82.8052 47.1891 79.8524 50.3854C79.2618 51.0956 78.6712 51.7467 77.6673 51.8059Z" fill="#230D4D" stroke="#230D4D"/>
<path d="M7.68491 3.50651C8.03926 3.5657 8.09831 3.38813 8.21643 3.26975C8.62983 2.85542 8.92511 1.96757 9.69285 2.3819C10.5197 2.79623 9.87002 3.38813 9.6338 3.92085C9.45662 4.39437 9.6338 4.69032 10.0472 5.04546C10.874 5.69655 10.6968 6.64359 9.81097 6.70278C6.3266 7.11711 6.03132 9.83986 5.55886 12.385C4.73206 16.7651 3.96432 21.1452 3.78715 25.5252C3.60998 29.8461 4.14149 34.1078 6.50377 37.9552C6.91717 38.6063 7.27151 39.3757 6.38566 39.9084C5.4998 40.382 5.14546 39.4941 4.90924 38.9614C2.84224 34.6405 1.77921 30.0237 2.25167 25.2293C2.72413 20.1981 3.43281 15.2262 4.55489 10.3726C4.96829 8.77443 5.44075 6.99873 3.66904 5.63736C3.01941 5.10465 3.60998 3.98004 4.61395 4.03923C5.85415 4.15761 6.03132 3.50651 6.09037 2.55947C6.09037 2.26352 6.20849 1.96757 6.3266 1.73081C6.50378 1.31648 6.79906 0.902149 7.33057 1.02053C7.80303 1.13891 7.74397 1.61243 7.74397 2.02676C7.62586 2.50028 7.38963 3.03299 7.68491 3.50651Z" fill="#230D4D" stroke="#230D4D"/>
<path d="M42.056 84.4194C64.5612 84.4194 82.8053 66.1342 82.8053 43.5782C82.8053 21.0223 64.5612 2.73706 42.056 2.73706C19.5507 2.73706 1.30664 21.0223 1.30664 43.5782C1.30664 66.1342 19.5507 84.4194 42.056 84.4194Z" fill="#FF9776"/>
<path d="M0.702427 91.2407L0.710249 91.228L0.717296 91.2148C1.59724 89.5685 2.53663 87.9796 3.48241 86.38L3.48242 86.38L3.48443 86.3765C4.42986 84.7479 5.37521 83.1046 6.31998 81.4623L6.32015 81.462C7.26515 79.8194 8.20957 78.1777 9.15391 76.551L9.16184 76.5373L9.1689 76.5231C9.27519 76.3101 9.43701 76.0402 9.59427 75.83L9.60258 75.8189L9.61026 75.8074C9.75616 75.588 9.88675 75.4926 9.9742 75.4614C10.0331 75.4405 10.1203 75.4288 10.2745 75.5319L10.2844 75.5385L10.2946 75.5446C10.3787 75.5952 10.41 75.6381 10.4229 75.6616C10.4357 75.685 10.4452 75.7165 10.4437 75.7674C10.4402 75.8871 10.3769 76.0624 10.2461 76.2721L10.2402 76.2817L10.2346 76.2915C9.5864 77.4432 8.92322 78.5953 8.25862 79.7499L8.25803 79.7509C7.59437 80.9039 6.92929 82.0592 6.27878 83.215C5.4825 84.6042 4.68614 85.9788 3.8891 87.3546L3.88898 87.3548C3.09576 88.724 2.30187 90.0943 1.50789 91.4794C1.4584 91.55 1.40749 91.6282 1.36368 91.6954C1.34192 91.7288 1.32192 91.7595 1.30472 91.7852C1.24048 91.8814 1.18758 91.9526 1.133 92.0097C1.05814 92.088 0.969928 92.1525 0.813266 92.183C0.588923 92.0812 0.528963 91.968 0.510478 91.8939C0.482697 91.7825 0.500481 91.5696 0.702427 91.2407Z" fill="#230D4D" stroke="#230D4D"/>
<path d="M17.135 100.631L17.1429 100.618L17.1499 100.605C18.0299 98.9587 18.9693 97.3697 19.915 95.7701L19.915 95.7701L19.9171 95.7667C20.8624 94.1381 21.8077 92.495 22.7524 90.8528L22.7528 90.8522C23.6978 89.2095 24.6422 87.5678 25.5865 85.9411L25.5945 85.9274L25.6015 85.9133C25.7078 85.7002 25.8696 85.4303 26.0269 85.2202L26.0352 85.2091L26.0429 85.1975C26.1888 84.9782 26.3194 84.8827 26.4068 84.8516C26.4657 84.8306 26.5529 84.819 26.7071 84.922L26.717 84.9286L26.7272 84.9348C26.8113 84.9853 26.8426 85.0283 26.8555 85.0517C26.8683 85.0751 26.8778 85.1066 26.8763 85.1575C26.8728 85.2772 26.8095 85.4525 26.6787 85.6623L26.6728 85.6718L26.6673 85.6816C26.019 86.8333 25.3558 87.9854 24.6912 89.14L24.6906 89.1412C24.0269 90.2941 23.3619 91.4494 22.7114 92.6051C21.9151 93.9944 21.1188 95.369 20.3217 96.7447L20.3214 96.7452C19.5283 98.1143 18.7344 99.4845 17.9405 100.87C17.891 100.94 17.8401 101.018 17.7963 101.086C17.7745 101.119 17.7545 101.15 17.7373 101.175C17.6731 101.272 17.6202 101.343 17.5656 101.4C17.4908 101.478 17.4025 101.543 17.2459 101.573C17.0215 101.471 16.9616 101.358 16.9431 101.284C16.9153 101.173 16.9331 100.96 17.135 100.631Z" fill="#230D4D" stroke="#230D4D"/>
<path d="M6.89697 102.014C5.893 102.014 5.59771 101.185 6.12923 100.238C7.54659 97.7524 8.96396 95.2664 10.3813 92.8396C11.6215 90.7088 12.8617 88.578 14.0429 86.4471C14.3972 85.8552 14.7515 85.2633 15.5193 85.6184C16.4051 86.092 15.9327 86.8022 15.6374 87.3941C13.0389 91.9518 10.3813 96.5094 7.78282 101.067C7.54659 101.481 7.31037 101.955 6.89697 102.014Z" fill="#230D4D" stroke="#230D4D"/>
<path d="M28.8279 79.1519C28.946 79.211 29.0641 79.2702 29.2413 79.2702C29.0051 79.4478 28.8869 79.4478 28.8279 79.1519Z" fill="#FC8965"/>
<path d="M62.3237 35.0272C63.9061 36.1076 66.0693 35.6939 67.1554 34.1032C68.2414 32.5125 67.8391 30.3471 66.2567 29.2667C64.6744 28.1864 62.5112 28.6001 61.4251 30.1908C60.339 31.7815 60.7414 33.9468 62.3237 35.0272Z" fill="white"/>
<path d="M53.3494 19.1302C53.6124 20.3501 53.5252 21.637 52.9633 22.9058C52.5749 23.7422 52.2093 23.921 51.4618 23.4107C50.5198 22.8287 49.7024 22.3318 50.1552 20.8661C50.6055 19.5824 49.9509 18.401 48.8298 17.6356C47.7087 16.8701 46.5077 16.8457 45.2969 17.5491C44.3817 18.087 41.0874 17.9186 42.0613 16.1355C43.0352 14.3524 46.3002 13.5829 48.1241 14.0325C50.6587 14.6002 52.7821 16.662 53.3494 19.1302Z" fill="white"/>
<path d="M57.6831 40.8581C54.7028 44.5345 48.1888 44.1928 43.1337 40.0949C38.0786 35.9971 36.3967 29.6947 39.377 26.0183" stroke="white" stroke-width="3.9759" stroke-linecap="round"/>
</svg>
