<svg width="125" height="58" viewBox="0 0 125 58" fill="none" xmlns="http://www.w3.org/2000/svg">
<path d="M20.4522 23.1675C20.4522 26.0301 19.6526 28.1623 18.0535 29.564C16.4543 30.9657 14.2432 31.6666 11.42 31.6666C8.55737 31.6666 6.33635 30.9756 4.75696 29.5936C3.19731 28.1919 2.41748 26.0499 2.41748 23.1675V10.019H7.06682V23.1675C7.06682 23.74 7.11617 24.3027 7.21488 24.8555C7.3136 25.4082 7.52089 25.9018 7.83677 26.3361C8.15265 26.7705 8.58698 27.116 9.13977 27.3726C9.7123 27.6293 10.4724 27.7576 11.42 27.7576C13.0784 27.7576 14.2234 27.3924 14.8552 26.6619C15.487 25.9117 15.8028 24.7469 15.8028 23.1675V10.019H20.4522V23.1675Z" fill="white"/>
<path d="M24.4562 10.019H33.9918C35.3146 10.019 36.4399 10.2165 37.3678 10.6113C38.2957 10.9864 39.0459 11.4899 39.6184 12.1216C40.2107 12.7534 40.6352 13.4838 40.8918 14.313C41.1682 15.1225 41.3064 15.9516 41.3064 16.8006C41.3064 17.6692 41.1682 18.5083 40.8918 19.3177C40.6352 20.1272 40.2107 20.8478 39.6184 21.4795C39.0459 22.1113 38.2957 22.6246 37.3678 23.0194C36.4399 23.3945 35.3146 23.5821 33.9918 23.5821H29.1056V31.1632H24.4562V10.019ZM29.1056 19.9692H32.7184C33.2515 19.9692 33.7648 19.9297 34.2584 19.8508C34.7519 19.7718 35.1862 19.6237 35.5614 19.4066C35.9365 19.1696 36.2326 18.8439 36.4498 18.4293C36.6867 18.0147 36.8051 17.4718 36.8051 16.8006C36.8051 16.1293 36.6867 15.5864 36.4498 15.1718C36.2326 14.7572 35.9365 14.4413 35.5614 14.2242C35.1862 13.9873 34.7519 13.8293 34.2584 13.7504C33.7648 13.6714 33.2515 13.6319 32.7184 13.6319H29.1056V19.9692Z" fill="white"/>
<path d="M52.8188 24.482L62.1658 24.5205V7.10229H70.3444V24.1744H74.9595V28.3656H70.3444V34.4023H62.1658V28.3656H45.8086V23.713L46.9185 11.2165H53.8119L52.8188 24.482Z" fill="#FF9776"/>
<path d="M109.742 21.0038C109.416 20.7008 109.392 20.3746 109.718 20.0483C109.881 19.8852 109.998 19.6987 110.067 19.4657C110.649 19.0695 110.999 18.4869 111.418 17.9509C113.792 14.8047 115.562 11.2624 117.541 7.88323C117.867 7.34722 118.146 6.81121 118.472 6.2752C118.891 5.57606 119.357 4.90023 119.217 4.01465C119.17 3.73499 119.287 3.43203 119.45 3.17568C119.799 2.61636 120.218 2.12696 120.544 1.54434C120.707 1.24138 121.01 1.14816 121.359 1.21808C121.708 1.28799 121.778 1.59095 121.801 1.89392C121.824 2.17357 121.894 2.42992 121.987 2.68628C122.267 3.47864 121.987 4.271 121.219 4.57396C120.497 4.85362 120.125 5.38963 119.776 5.99555C117.75 9.46795 115.864 12.987 113.676 16.3662C112.745 17.7877 111.767 19.186 110.603 20.4445C110.37 20.7241 110.137 20.9805 109.742 21.0038Z" fill="white" stroke="white" stroke-width="0.309701"/>
<path d="M82.1536 1.98688C82.2933 2.01019 82.3166 1.94027 82.3632 1.89366C82.5261 1.73053 82.6425 1.38096 82.9452 1.54409C83.2711 1.70723 83.015 1.94027 82.9219 2.15002C82.8521 2.33645 82.9219 2.45298 83.0849 2.59281C83.4108 2.84916 83.341 3.22203 82.9918 3.24534C81.6182 3.40847 81.5018 4.48049 81.3155 5.48259C80.9896 7.20714 80.6869 8.93169 80.6171 10.6562C80.5473 12.3575 80.7568 14.0354 81.688 15.5502C81.851 15.8066 81.9907 16.1096 81.6415 16.3193C81.2922 16.5057 81.1526 16.1562 81.0594 15.9464C80.2446 14.2452 79.8255 12.4274 80.0118 10.5397C80.198 8.55882 80.4774 6.60122 80.9197 4.69023C81.0827 4.061 81.269 3.36186 80.5705 2.82585C80.3144 2.61611 80.5473 2.17332 80.943 2.19662C81.4319 2.24323 81.5018 1.98688 81.5251 1.61401C81.5251 1.49748 81.5716 1.38096 81.6182 1.28774C81.688 1.12461 81.8044 0.961474 82.014 1.00808C82.2002 1.05469 82.1769 1.24113 82.1769 1.40426C82.1304 1.5907 82.0372 1.80044 82.1536 1.98688Z" fill="white" stroke="white" stroke-width="0.309701"/>
<path d="M95.7033 33.8456C104.575 33.8456 111.767 26.6462 111.767 17.7653C111.767 8.88444 104.575 1.68506 95.7033 1.68506C86.8314 1.68506 79.6394 8.88444 79.6394 17.7653C79.6394 26.6462 86.8314 33.8456 95.7033 33.8456Z" fill="#FF9776"/>
<path d="M79.3651 36.5082L79.3654 36.5084L79.3697 36.5002C79.7171 35.8511 80.0879 35.2247 80.4607 34.595L80.4607 34.595L80.4613 34.594C80.8339 33.9529 81.2065 33.306 81.5789 32.6594L81.5791 32.6592C81.9516 32.0124 82.3239 31.366 82.6963 30.7254L82.6965 30.7255L82.7009 30.7168C82.7438 30.6309 82.8089 30.5224 82.8726 30.4375L82.8727 30.4376L82.8775 30.4304C82.9377 30.3401 82.9956 30.2944 83.042 30.2779C83.0796 30.2645 83.1279 30.2634 83.1981 30.3103L83.198 30.3104L83.2044 30.3142C83.2429 30.3374 83.261 30.3594 83.2702 30.3761C83.2794 30.3928 83.2843 30.4128 83.2835 30.4391C83.2818 30.4973 83.2523 30.5739 83.1993 30.6588L83.1992 30.6587L83.1958 30.6648C82.9401 31.1184 82.6786 31.5722 82.4166 32.0268L82.4164 32.0272C82.1547 32.4812 81.8926 32.936 81.6362 33.3909C81.3222 33.938 81.0082 34.4794 80.694 35.0211L80.6939 35.0212C80.3809 35.5608 80.0677 36.1008 79.7544 36.6466C79.7351 36.6741 79.7155 36.7042 79.6981 36.7308C79.6893 36.7443 79.6811 36.7569 79.6738 36.7678C79.648 36.8063 79.6256 36.8368 79.6015 36.8619C79.5641 36.9009 79.5186 36.9322 79.4396 36.9447C79.3331 36.8997 79.2961 36.844 79.2845 36.7975C79.2697 36.7382 79.2826 36.6424 79.3651 36.5082Z" fill="white" stroke="white" stroke-width="0.309701"/>
<path d="M85.8434 40.2053L85.8436 40.2054L85.848 40.1972C86.1954 39.5481 86.5662 38.9217 86.9389 38.2921L86.9389 38.2921L86.9396 38.291C87.3122 37.6499 87.6848 37.003 88.0572 36.3565L88.0574 36.3562C88.4299 35.7094 88.8022 35.063 89.1745 34.4224L89.1748 34.4226L89.1792 34.4138C89.2221 34.3279 89.2872 34.2195 89.3508 34.1345L89.351 34.1346L89.3558 34.1275C89.4159 34.0372 89.4738 33.9914 89.5203 33.9749C89.5579 33.9615 89.6062 33.9604 89.6764 34.0073L89.6763 34.0074L89.6826 34.0112C89.7212 34.0344 89.7393 34.0564 89.7485 34.0731C89.7576 34.0899 89.7626 34.1098 89.7618 34.1361C89.7601 34.1943 89.7306 34.2709 89.6776 34.3558L89.6774 34.3557L89.674 34.3618C89.4184 34.8155 89.1568 35.2693 88.8949 35.7238L88.8946 35.7242C88.633 36.1782 88.3708 36.633 88.1145 37.0879C87.8005 37.635 87.4865 38.1764 87.1723 38.7181L87.1722 38.7182C86.8592 39.2579 86.546 39.7978 86.2327 40.3436C86.2134 40.3711 86.1938 40.4012 86.1764 40.4279C86.1676 40.4413 86.1594 40.4539 86.1521 40.4648C86.1263 40.5033 86.1039 40.5338 86.0798 40.5589C86.0424 40.598 85.9969 40.6293 85.9179 40.6418C85.8114 40.5967 85.7744 40.5411 85.7628 40.4945C85.748 40.4352 85.7609 40.3395 85.8434 40.2053Z" fill="white" stroke="white" stroke-width="0.309701"/>
<path d="M81.8433 40.772C81.4475 40.772 81.3311 40.4458 81.5406 40.0729C82.0994 39.0941 82.6581 38.1153 83.2168 37.1598C83.7057 36.3208 84.1946 35.4819 84.6603 34.6429C84.8 34.4098 84.9396 34.1768 85.2423 34.3166C85.5915 34.5031 85.4053 34.7827 85.2889 35.0158C84.2645 36.8102 83.2168 38.6047 82.1925 40.3992C82.0994 40.5623 82.0062 40.7487 81.8433 40.772Z" fill="white" stroke="white" stroke-width="0.309701"/>
<path d="M90.4888 31.7705C90.5353 31.7938 90.5819 31.8172 90.6517 31.8172C90.5586 31.8872 90.5121 31.8872 90.4888 31.7705Z" fill="#FC8965"/>
<path d="M103.693 14.3976C104.316 14.823 105.169 14.6601 105.597 14.0338C106.025 13.4075 105.867 12.555 105.243 12.1296C104.619 11.7042 103.766 11.8671 103.338 12.4934C102.91 13.1197 103.069 13.9722 103.693 14.3976Z" fill="white"/>
<path d="M100.155 8.13847C100.258 8.61879 100.224 9.12547 100.002 9.62503C99.8493 9.95435 99.7052 10.0247 99.4106 9.82382C99.0392 9.59468 98.717 9.39903 98.8955 8.82195C99.073 8.3165 98.815 7.85138 98.373 7.55C97.931 7.24861 97.4576 7.23902 96.9803 7.51595C96.6195 7.72775 95.3208 7.66145 95.7048 6.95939C96.0887 6.25734 97.3758 5.95433 98.0948 6.13136C99.094 6.35489 99.931 7.16667 100.155 8.13847Z" fill="white"/>
<path d="M101.863 16.6934C100.688 18.1409 98.1202 18.0064 96.1275 16.3929C94.1347 14.7795 93.4716 12.2981 94.6465 10.8506" stroke="white" stroke-width="1.23134" stroke-linecap="round"/>
<g clip-path="url(#clip0)">
<path d="M19.3786 52.1574C18.9444 52.9976 18.4313 53.7178 17.7999 54.4379C17.1684 55.1181 16.458 55.7182 15.7081 56.1983C14.9187 56.6784 14.0899 57.0785 13.1822 57.3186C12.2744 57.5986 11.3272 57.7187 10.3405 57.7187C8.91966 57.7187 7.57776 57.4386 6.3148 56.8785C5.05184 56.3184 3.98622 55.5982 3.039 54.638C2.09178 53.6778 1.38136 52.5975 0.828818 51.3172C0.276273 50.077 0 48.7167 0 47.2763C0 45.836 0.276273 44.5157 0.828818 43.2354C1.38136 41.9551 2.09178 40.8749 3.039 39.9147C3.98622 38.9545 5.05184 38.2343 6.3148 37.6742C7.57776 37.114 8.91966 36.834 10.3405 36.834C11.2877 36.834 12.2349 36.954 13.1427 37.2341C14.0504 37.4741 14.8793 37.8742 15.6291 38.3143C16.379 38.7944 17.0894 39.3545 17.7209 39.9947C18.3524 40.6348 18.8655 41.355 19.2996 42.1552C18.8655 42.3952 18.5103 42.5553 18.234 42.7153C17.9577 42.8753 17.7209 42.9954 17.4841 43.1154C17.2473 43.2354 16.971 43.3955 16.6553 43.5155C16.3396 43.6755 15.9449 43.8756 15.4713 44.0756C14.9977 43.1954 14.2872 42.4752 13.3795 41.9151C12.4717 41.355 11.485 41.0749 10.38 41.0749C9.55114 41.0749 8.76179 41.235 8.05137 41.555C7.34096 41.8751 6.67001 42.3152 6.11747 42.8753C5.56492 43.4355 5.13078 44.0756 4.81504 44.8358C4.4993 45.596 4.34143 46.3561 4.34143 47.1963C4.34143 48.0365 4.4993 48.8367 4.81504 49.5568C5.13078 50.277 5.56492 50.9572 6.11747 51.5173C6.67001 52.0774 7.30149 52.5175 8.05137 52.8376C8.76179 53.1576 9.55114 53.3177 10.38 53.3177C11.5245 53.3177 12.5507 53.0376 13.4979 52.4375C14.4451 51.8373 15.1555 51.0772 15.6686 50.117C16.1422 50.357 16.5369 50.5571 16.8132 50.7171C17.0894 50.8771 17.3657 50.9972 17.642 51.1572C17.8788 51.2772 18.1551 51.4373 18.3919 51.5573C18.5497 51.7573 18.9444 51.9574 19.3786 52.1574Z" fill="white"/>
<path d="M26.088 48.8377V57.5997H21.7466V36.9551H26.088V44.3967H35.4813V37.0351H39.8622V57.5997H35.4813V48.8377H26.088Z" fill="white"/>
<path d="M41.2435 57.6396L50.4789 37.115H54.9782L64.0558 57.6396H59.8722L57.7015 53.1186H47.4399L45.3087 57.6796H41.2435V57.6396ZM52.768 40.9959L49.3738 48.9576H56.1228L52.768 40.9959Z" fill="white"/>
<path d="M69.2655 57.6795H65.7529V37.0349H69.2655H70.8442L79.9218 48.9769V38.3345H83.7106V57.6795H79.9218L69.2655 42.5962V57.6795Z" fill="white"/>
<path d="M106.404 47.3572C106.404 47.5572 106.365 47.8773 106.326 48.3174C106.286 48.7575 106.207 49.2376 106.089 49.7577C106.01 50.2779 105.891 50.798 105.734 51.2781C105.576 51.7582 105.418 52.1583 105.22 52.4383C104.786 53.2785 104.234 53.9987 103.602 54.7189C102.971 55.399 102.221 55.9991 101.432 56.4793C100.642 56.9594 99.7739 57.3194 98.8662 57.5995C97.9584 57.8796 97.0112 57.9996 96.0245 57.9996C94.6037 57.9996 93.2223 57.7195 91.9593 57.1594C90.6964 56.5993 89.5913 55.8391 88.6046 54.8789C87.6574 53.9187 86.9075 52.7984 86.3549 51.4781C85.8024 50.1978 85.5261 48.7975 85.5261 47.3172C85.5261 45.8769 85.8024 44.4766 86.3549 43.1963C86.9075 41.916 87.6574 40.7957 88.6046 39.7955C89.5518 38.8353 90.6569 38.0751 91.9593 37.515C93.2223 36.9549 94.5642 36.6748 96.0245 36.6748C97.0112 36.6748 97.9584 36.7948 98.8662 37.0749C99.7739 37.355 100.642 37.715 101.392 38.1951C102.181 38.6753 102.892 39.2354 103.523 39.8755C104.155 40.5557 104.707 41.2758 105.181 42.076C104.707 42.3161 104.352 42.5161 104.076 42.6361C103.8 42.7962 103.523 42.9162 103.287 43.0362C103.05 43.1563 102.734 43.3163 102.458 43.4363C102.142 43.5964 101.747 43.7964 101.274 44.0365C100.761 43.1163 100.011 42.3961 99.103 41.836C98.1557 41.2758 97.1691 40.9958 96.0245 40.9958C95.1562 40.9958 94.3669 41.1558 93.617 41.4759C92.8671 41.796 92.2356 42.2361 91.6831 42.7962C91.1305 43.3563 90.6964 43.9964 90.3806 44.7566C90.0649 45.5168 89.907 46.317 89.907 47.1972C89.907 48.0774 90.0649 48.8775 90.3806 49.6377C90.6964 50.3979 91.1305 51.078 91.6831 51.6382C92.2356 52.1983 92.8671 52.6384 93.617 52.9585C94.3669 53.2785 95.1562 53.4386 96.0245 53.4386C97.1691 53.4386 98.1952 53.1585 99.1424 52.5584C100.09 51.9982 100.84 51.2381 101.392 50.3179C100.879 50.3179 100.405 50.2779 100.011 50.3179C99.616 50.3179 99.1819 50.3179 98.7083 50.3179C98.2347 50.3179 97.8005 50.3179 97.4059 50.3179C97.0112 50.3179 96.6954 50.3179 96.4192 50.3179C96.1429 50.3179 96.0245 50.3179 96.0245 50.2779V47.1572C96.7349 47.1572 97.5243 47.1572 98.3531 47.1572C99.1819 47.1572 100.05 47.1572 100.958 47.1572C101.866 47.1572 102.773 47.1572 103.681 47.1572C104.628 47.3572 105.536 47.3572 106.404 47.3572Z" fill="white"/>
<path d="M112.561 53.8391H124.007V57.64H108.22V36.9954H123.02V40.7962H112.522V45.4373H121.797V49.4382H112.522V53.8391H112.561Z" fill="white"/>
</g>
<defs>
<clipPath id="clip0">
<rect width="124.007" height="21.2848" fill="white" transform="translate(0 36.7153)"/>
</clipPath>
</defs>
</svg>
