<svg width="64" height="57" viewBox="0 0 64 57" fill="none" xmlns="http://www.w3.org/2000/svg">
<path d="M59.3305 5.59934C56.1739 1.98851 51.7948 0 47 0C40.2565 0 35.9871 4.06019 33.5931 7.46637C32.972 8.35024 32.4436 9.2365 32 10.0705C31.5564 9.2365 31.0281 8.35024 30.4069 7.46637C28.0129 4.06019 23.7435 0 17 0C12.2052 0 7.82613 1.98864 4.66937 5.59947C1.65838 9.04395 0 13.6571 0 18.5891C0 23.9577 2.07912 28.951 6.54313 34.3031C10.5328 39.0866 16.2724 44.0173 22.9188 49.7269C25.3954 51.8546 27.9565 54.0548 30.6831 56.4598L30.765 56.5321C31.1185 56.8441 31.5592 57 32 57C32.4408 57 32.8815 56.844 33.235 56.5321L33.3169 56.4598C36.0435 54.0548 38.6046 51.8547 41.0816 49.7267C47.7276 44.0175 53.4673 39.0868 57.4569 34.3031C61.9209 28.9509 64 23.9577 64 18.5891C64 13.6571 62.3416 9.04395 59.3305 5.59934Z" fill="#FF3E3E"/>
</svg>
