<svg width="375" height="173" viewBox="0 0 375 173" fill="none" xmlns="http://www.w3.org/2000/svg">
<g clip-path="url(#clip0_111_234)">
<path d="M61.8082 67.7302C61.8082 76.3814 59.3918 82.8251 54.559 87.0613C49.7263 91.2974 43.0439 93.4155 34.5119 93.4155C25.8607 93.4155 19.1485 91.3273 14.3754 87.1508C9.6619 82.9146 7.30518 76.4411 7.30518 67.7302V27.994H21.356V67.7302C21.356 69.4604 21.5052 71.1608 21.8035 72.8314C22.1018 74.502 22.7283 75.9936 23.6829 77.3062C24.6376 78.6188 25.9502 79.6629 27.6208 80.4386C29.351 81.2142 31.6481 81.602 34.5119 81.602C39.5237 81.602 42.9842 80.4982 44.8935 78.2907C46.8027 76.0234 47.7573 72.5033 47.7573 67.7302V27.994H61.8082V67.7302Z" fill="white"/>
<path d="M73.9089 27.994H102.727C106.724 27.994 110.125 28.5906 112.929 29.7839C115.733 30.9175 118.001 32.4389 119.731 34.3482C121.521 36.2574 122.804 38.465 123.579 40.9709C124.415 43.4171 124.832 45.923 124.832 48.4885C124.832 51.1137 124.415 53.6495 123.579 56.0957C122.804 58.5419 121.521 60.7196 119.731 62.6289C118.001 64.5381 115.733 66.0894 112.929 67.2827C110.125 68.4163 106.724 68.9831 102.727 68.9831H87.9598V91.8941H73.9089V27.994ZM87.9598 58.0646H98.8783C100.489 58.0646 102.041 57.9453 103.532 57.7066C105.024 57.468 106.336 57.0205 107.47 56.3642C108.604 55.6482 109.499 54.6637 110.155 53.4108C110.871 52.1579 111.229 50.5171 111.229 48.4885C111.229 46.46 110.871 44.8192 110.155 43.5663C109.499 42.3133 108.604 41.3587 107.47 40.7024C106.336 39.9864 105.024 39.5091 103.532 39.2704C102.041 39.0318 100.489 38.9125 98.8783 38.9125H87.9598V58.0646Z" fill="white"/>
<path d="M159.625 71.7023L187.872 71.8185V19.1786H212.589V70.7726H226.536V83.4388H212.589V101.683H187.872V83.4388H138.439V69.3782L141.793 31.6123H162.626L159.625 71.7023Z" fill="#FF7245"/>
<path d="M331.652 61.528C330.667 60.6113 330.596 59.6241 331.581 58.6369C332.074 58.1432 332.426 57.5791 332.637 56.8739C334.396 55.6752 335.451 53.9123 336.718 52.2904C343.894 42.7706 349.241 32.0521 355.222 21.8273C356.207 20.2054 357.051 18.5835 358.036 16.9616C359.302 14.8461 360.71 12.8011 360.288 10.1215C360.147 9.27535 360.499 8.35863 360.991 7.58295C362.046 5.89055 363.313 4.40971 364.298 2.6468C364.79 1.73008 365.705 1.44802 366.76 1.65957C367.816 1.87111 368.027 2.78783 368.097 3.70454C368.168 4.55074 368.379 5.32642 368.66 6.1021C369.504 8.49966 368.66 10.8972 366.338 11.8139C364.157 12.6601 363.031 14.282 361.976 16.1154C355.855 26.6224 350.156 37.2704 343.542 47.4952C340.728 51.7968 337.773 56.0277 334.255 59.8356C333.551 60.6818 332.848 61.4575 331.652 61.528Z" fill="white" stroke="white"/>
<path d="M248.277 3.98615C248.699 4.05667 248.769 3.84512 248.91 3.70408C249.403 3.21047 249.754 2.15272 250.669 2.64634C251.654 3.13995 250.88 3.84512 250.599 4.47977C250.388 5.0439 250.599 5.39648 251.091 5.81958C252.076 6.59526 251.865 7.72352 250.81 7.79404C246.659 8.28766 246.307 11.5314 245.744 14.5636C244.759 19.7818 243.844 25.0001 243.633 30.2183C243.422 35.366 244.055 40.4432 246.87 45.0267C247.362 45.8024 247.784 46.7191 246.729 47.3538C245.674 47.9179 245.251 46.8602 244.97 46.2255C242.508 41.0778 241.241 35.5775 241.804 29.8657C242.367 23.8718 243.211 17.9484 244.548 12.1661C245.04 10.2621 245.603 8.14662 243.493 6.52474C242.719 5.8901 243.422 4.55028 244.618 4.6208C246.096 4.76183 246.307 3.98615 246.377 2.85789C246.377 2.5053 246.518 2.15272 246.659 1.87066C246.87 1.37704 247.221 0.883424 247.855 1.02446C248.418 1.16549 248.347 1.72962 248.347 2.22324C248.206 2.78737 247.925 3.42202 248.277 3.98615Z" fill="white" stroke="white"/>
<path d="M289.226 100.382C316.038 100.382 337.773 78.598 337.773 51.7259C337.773 24.8537 316.038 3.06946 289.226 3.06946C262.414 3.06946 240.679 24.8537 240.679 51.7259C240.679 78.598 262.414 100.382 289.226 100.382Z" fill="#FF7245"/>
<path d="M239.877 108.459L239.885 108.446L239.892 108.433C240.941 106.469 242.062 104.575 243.188 102.669L243.19 102.666C244.316 100.726 245.443 98.7683 246.568 96.8118C247.694 94.8548 248.819 92.8983 249.945 90.9601L249.953 90.9465L249.96 90.9323C250.089 90.674 250.284 90.3474 250.475 90.092L250.484 90.0809L250.491 90.0693C250.671 89.799 250.841 89.6667 250.973 89.62C251.075 89.5835 251.21 89.5775 251.416 89.7145L251.425 89.7211L251.436 89.7273C251.633 89.8462 251.663 89.9593 251.66 90.0774C251.655 90.2453 251.569 90.4716 251.41 90.7266L251.404 90.7361L251.398 90.7459C250.626 92.1185 249.835 93.4915 249.044 94.8669L249.043 94.8678C248.252 96.2417 247.46 97.618 246.685 98.9947C245.736 100.65 244.788 102.288 243.838 103.927C242.892 105.56 241.946 107.193 240.999 108.845C240.941 108.928 240.881 109.02 240.828 109.1C240.802 109.141 240.777 109.178 240.756 109.211C240.678 109.327 240.612 109.417 240.541 109.491C240.434 109.603 240.305 109.693 240.079 109.731C239.771 109.598 239.669 109.438 239.637 109.31C239.595 109.142 239.63 108.861 239.877 108.459Z" fill="white" stroke="white"/>
<path d="M259.455 119.645L259.462 119.633L259.469 119.62C260.519 117.656 261.639 115.761 262.766 113.856L262.768 113.853C263.894 111.912 265.02 109.955 266.146 107.998C267.272 106.041 268.397 104.085 269.522 102.147L269.53 102.133L269.537 102.119C269.666 101.861 269.862 101.534 270.053 101.279L270.061 101.267L270.069 101.256C270.249 100.986 270.419 100.853 270.55 100.807C270.653 100.77 270.788 100.764 270.993 100.901L271.003 100.908L271.013 100.914C271.211 101.033 271.241 101.146 271.237 101.264C271.232 101.432 271.146 101.658 270.987 101.913L270.981 101.923L270.976 101.933C270.203 103.305 269.413 104.678 268.621 106.054L268.62 106.055C267.83 107.429 267.037 108.805 266.263 110.181C265.314 111.837 264.365 113.475 263.415 115.114C262.469 116.747 261.523 118.38 260.576 120.031C260.518 120.115 260.458 120.206 260.406 120.287C260.379 120.327 260.355 120.365 260.333 120.397C260.256 120.513 260.189 120.604 260.118 120.678C260.011 120.79 259.882 120.88 259.656 120.917C259.348 120.785 259.246 120.625 259.215 120.497C259.173 120.329 259.207 120.048 259.455 119.645Z" fill="white" stroke="white"/>
<path d="M251.922 110.665L251.923 110.662C253.399 108.128 254.877 105.588 256.285 103.047C256.509 102.673 256.672 102.417 256.853 102.276C256.931 102.216 256.996 102.191 257.06 102.184C257.125 102.178 257.229 102.186 257.388 102.258C257.581 102.364 257.656 102.457 257.686 102.514C257.715 102.569 257.729 102.638 257.714 102.745C257.698 102.86 257.65 102.998 257.572 103.169C257.52 103.282 257.467 103.385 257.409 103.497C257.378 103.558 257.345 103.621 257.311 103.69C255.766 106.4 254.203 109.11 252.64 111.821C251.074 114.536 249.508 117.251 247.96 119.967C247.936 120.009 247.913 120.049 247.891 120.089C247.77 120.303 247.669 120.481 247.553 120.628C247.438 120.774 247.355 120.826 247.294 120.843C246.875 120.832 246.718 120.666 246.658 120.52C246.58 120.327 246.584 119.965 246.859 119.474C248.548 116.512 250.235 113.553 251.922 110.665Z" fill="white" stroke="white"/>
<path d="M273.466 94.1064C273.606 94.177 273.747 94.2475 273.958 94.2475C273.677 94.459 273.536 94.459 273.466 94.1064Z" fill="#FF7245"/>
<path d="M313.372 41.539C315.257 42.8261 317.834 42.3332 319.128 40.4381C320.422 38.543 319.942 35.9633 318.057 34.6762C316.172 33.3891 313.595 33.882 312.301 35.7771C311.007 37.6722 311.486 40.2518 313.372 41.539Z" fill="white"/>
<path d="M302.68 22.5996C302.993 24.053 302.889 25.5861 302.22 27.0977C301.757 28.0942 301.322 28.3072 300.431 27.6992C299.309 27.0059 298.335 26.4139 298.875 24.6677C299.411 23.1383 298.631 21.731 297.296 20.819C295.96 19.9071 294.529 19.878 293.087 20.716C291.996 21.3569 288.072 21.1562 289.232 19.0319C290.392 16.9077 294.282 15.9908 296.455 16.5265C299.475 17.2028 302.004 19.6591 302.68 22.5996Z" fill="white"/>
<path d="M307.843 48.4849C304.292 52.8649 296.532 52.4578 290.51 47.5758C284.487 42.6937 282.483 35.1854 286.034 30.8055" stroke="white" stroke-width="2" stroke-linecap="round"/>
<mask id="mask0_111_234" style="mask-type:luminance" maskUnits="userSpaceOnUse" x="0" y="108" width="375" height="66">
<path d="M374.764 108.675H0V173H374.764V108.675Z" fill="white"/>
</mask>
<g mask="url(#mask0_111_234)">
<path d="M58.5644 155.35C57.2523 157.89 55.7017 160.066 53.7933 162.242C51.8849 164.298 49.738 166.112 47.4717 167.563C45.0862 169.013 42.5814 170.223 39.8381 170.948C37.0947 171.794 34.2321 172.157 31.2502 172.157C26.9563 172.157 22.9009 171.311 19.0841 169.618C15.2673 167.925 12.0468 165.749 9.18423 162.847C6.32161 159.945 4.17465 156.68 2.50479 152.811C0.83493 149.063 0 144.952 0 140.599C0 136.246 0.83493 132.256 2.50479 128.387C4.17465 124.518 6.32161 121.253 9.18423 118.351C12.0468 115.449 15.2673 113.273 19.0841 111.58C22.9009 109.888 26.9563 109.041 31.2502 109.041C34.1128 109.041 36.9755 109.404 39.7188 110.25C42.4621 110.976 44.9669 112.185 47.2332 113.515C49.4994 114.966 51.6464 116.659 53.5548 118.593C55.4632 120.528 57.0138 122.704 58.3258 125.122C57.0138 125.848 55.9403 126.332 55.1054 126.815C54.2704 127.299 53.5548 127.662 52.8391 128.024C52.1235 128.387 51.2885 128.871 50.3343 129.233C49.3801 129.717 48.1874 130.322 46.7561 130.926C45.3248 128.266 43.1778 126.09 40.4345 124.397C37.6911 122.704 34.7092 121.858 31.3695 121.858C28.8647 121.858 26.4792 122.341 24.3322 123.309C22.1853 124.276 20.1576 125.606 18.4877 127.299C16.8179 128.992 15.5058 130.926 14.5516 133.224C13.5974 135.521 13.1203 137.818 13.1203 140.357C13.1203 142.897 13.5974 145.315 14.5516 147.491C15.5058 149.668 16.8179 151.723 18.4877 153.416C20.1576 155.109 22.066 156.439 24.3322 157.406C26.4792 158.373 28.8647 158.857 31.3695 158.857C34.8285 158.857 37.9297 158.011 40.7923 156.197C43.6549 154.383 45.8019 152.086 47.3524 149.184C48.7838 149.909 49.9765 150.514 50.8114 150.998C51.6464 151.481 52.4813 151.844 53.3162 152.328C54.0319 152.69 54.8668 153.174 55.5825 153.537C56.0596 154.141 57.2523 154.746 58.5644 155.35Z" fill="white"/>
<path d="M78.841 145.311V171.791H65.7207V109.4H78.841V131.89H107.229V109.642H120.468V171.791H107.229V145.311H78.841Z" fill="white"/>
<path d="M124.643 171.912L152.554 109.884H166.151L193.584 171.912H180.941L174.381 158.249H143.369L136.928 172.033H124.643V171.912ZM159.472 121.612L149.214 145.674H169.61L159.472 121.612Z" fill="white"/>
<path d="M209.329 172.033H198.713V109.642H209.329H214.1L241.533 145.732V113.57H252.984V172.033H241.533L209.329 126.449V172.033Z" fill="white"/>
<path d="M321.568 140.837C321.568 141.442 321.448 142.409 321.329 143.739C321.21 145.069 320.971 146.52 320.613 148.092C320.375 149.664 320.017 151.236 319.54 152.687C319.063 154.138 318.586 155.347 317.989 156.193C316.677 158.732 315.007 160.909 313.099 163.085C311.191 165.141 308.924 166.954 306.539 168.405C304.153 169.856 301.529 170.944 298.786 171.791C296.043 172.637 293.18 173 290.198 173C285.904 173 281.729 172.154 277.913 170.461C274.096 168.768 270.756 166.471 267.774 163.569C264.912 160.667 262.645 157.281 260.976 153.291C259.306 149.422 258.471 145.19 258.471 140.716C258.471 136.364 259.306 132.132 260.976 128.262C262.645 124.393 264.912 121.008 267.774 117.985C270.637 115.083 273.977 112.786 277.913 111.093C281.729 109.4 285.785 108.554 290.198 108.554C293.18 108.554 296.043 108.917 298.786 109.763C301.529 110.609 304.153 111.697 306.42 113.148C308.805 114.599 310.952 116.292 312.86 118.227C314.769 120.282 316.439 122.459 317.87 124.877C316.439 125.602 315.365 126.207 314.53 126.57C313.695 127.053 312.86 127.416 312.145 127.779C311.429 128.142 310.475 128.625 309.64 128.988C308.686 129.472 307.493 130.076 306.062 130.802C304.511 128.021 302.245 125.844 299.502 124.151C296.639 122.459 293.657 121.612 290.198 121.612C287.574 121.612 285.188 122.096 282.922 123.063C280.656 124.031 278.748 125.361 277.078 127.053C275.408 128.746 274.096 130.681 273.142 132.978C272.187 135.275 271.71 137.694 271.71 140.354C271.71 143.014 272.187 145.432 273.142 147.729C274.096 150.027 275.408 152.082 277.078 153.775C278.748 155.468 280.656 156.798 282.922 157.765C285.188 158.732 287.574 159.216 290.198 159.216C293.657 159.216 296.758 158.37 299.621 156.556C302.483 154.863 304.75 152.566 306.42 149.785C304.869 149.785 303.438 149.664 302.245 149.785C301.052 149.785 299.74 149.785 298.309 149.785C296.877 149.785 295.565 149.785 294.373 149.785C293.18 149.785 292.226 149.785 291.391 149.785C290.556 149.785 290.198 149.785 290.198 149.664V140.233C292.345 140.233 294.731 140.233 297.235 140.233C299.74 140.233 302.364 140.233 305.108 140.233C307.851 140.233 310.594 140.233 313.338 140.233C316.2 140.837 318.944 140.837 321.568 140.837Z" fill="white"/>
<path d="M340.174 160.425H374.764V171.912H327.054V109.521H371.782V121.008H340.055V135.034H368.084V147.125H340.055V160.425H340.174Z" fill="white"/>
</g>
</g>
<defs>
<clipPath id="clip0_111_234">
<rect width="375" height="173" fill="white"/>
</clipPath>
</defs>
</svg>
