<svg width="245" height="229" viewBox="0 0 245 229" fill="none" xmlns="http://www.w3.org/2000/svg">
<path d="M240.33 5.59934C237.174 1.98851 232.795 0 228 0C221.257 0 216.987 4.06019 214.593 7.46637C213.972 8.35024 213.444 9.2365 213 10.0705C212.556 9.2365 212.028 8.35024 211.407 7.46637C209.013 4.06019 204.743 0 198 0C193.205 0 188.826 1.98864 185.669 5.59947C182.658 9.04395 181 13.6571 181 18.5891C181 23.9577 183.079 28.951 187.543 34.3031C191.533 39.0866 197.272 44.0173 203.919 49.7269C206.395 51.8546 208.957 54.0548 211.683 56.4598L211.765 56.5321C212.119 56.8441 212.559 57 213 57C213.441 57 213.882 56.844 214.235 56.5321L214.317 56.4598C217.043 54.0548 219.605 51.8547 222.082 49.7267C228.728 44.0175 234.467 39.0868 238.457 34.3031C242.921 28.9509 245 23.9577 245 18.5891C245 13.6571 243.342 9.04395 240.33 5.59934Z" fill="#FF3E3E"/>
<path d="M126.32 118.744C125.522 118.002 125.465 117.202 126.263 116.403C126.662 116.004 126.947 115.547 127.118 114.976C128.543 114.006 129.398 112.579 130.424 111.266C136.239 103.561 140.571 94.8851 145.417 86.6089C146.215 85.2961 146.899 83.9833 147.697 82.6705C148.723 80.9582 149.863 79.3029 149.521 77.134C149.407 76.4491 149.692 75.707 150.091 75.0792C150.946 73.7093 151.972 72.5107 152.77 71.0838C153.17 70.3418 153.911 70.1134 154.766 70.2847C155.621 70.4559 155.792 71.1979 155.849 71.9399C155.906 72.6249 156.077 73.2527 156.305 73.8806C156.989 75.8212 156.305 77.7618 154.424 78.5038C152.656 79.1888 151.744 80.5016 150.889 81.9856C145.93 90.4901 141.312 99.1088 135.954 107.385C133.674 110.867 131.28 114.291 128.429 117.374C127.859 118.059 127.289 118.686 126.32 118.744Z" fill="white" stroke="white" stroke-width="2"/>
<path d="M7.97899 189.897C8.44959 189.928 8.45499 190.21 8.55805 190.424C8.91875 191.172 8.9458 192.58 10.0769 192.225C11.2825 191.89 10.6927 190.801 10.6019 189.937C10.5626 189.179 10.9016 188.802 11.5621 188.417C12.86 187.733 13.0052 186.277 11.9095 185.894C7.67012 184.121 8.35795 180.008 8.75283 176.098C9.41505 169.364 10.1519 162.65 11.6346 156.133C13.0942 149.704 15.4258 143.598 19.9083 138.714C20.6841 137.892 21.4314 136.876 20.5201 135.795C19.5858 134.801 18.7923 135.992 18.2864 136.698C13.9924 142.379 10.8511 148.831 9.57993 156.057C8.21652 163.632 7.17452 171.199 6.70076 178.73C6.60026 181.224 6.50516 183.999 3.7371 185.415C2.70907 185.984 3.01682 187.839 4.3079 188.087C5.92039 188.326 5.89049 189.345 5.59612 190.761C5.48081 191.198 5.51469 191.673 5.57163 192.062C5.63397 192.732 5.8455 193.441 6.56292 193.444C7.20576 193.427 7.31565 192.709 7.47707 192.099C7.51238 191.361 7.42156 190.497 7.97899 189.897Z" fill="white" stroke="white" stroke-width="2"/>
<g clip-path="url(#clip0)">
<path d="M125.692 118.606C125.692 88.122 100.979 63.3774 70.5323 63.3774C40.086 63.3774 15.4359 88.122 15.4359 118.606C15.4359 118.925 15.4359 119.18 15.4359 119.499C15.4359 119.754 15.4359 120.073 15.4359 120.328C15.4359 123.708 15.8181 126.897 16.5824 130.086C16.6461 130.405 16.7735 130.723 16.8372 131.042C20.0857 145.009 28.5571 156.935 40.1497 164.651C40.1497 164.97 40.086 165.353 39.9586 165.799C38.0477 171.475 36.4553 177.343 34.226 182.891C32.6973 186.781 34.7993 189.141 36.2006 191.947C39.5764 198.771 43.0796 205.467 46.6466 212.227C47.5383 213.885 48.43 215.544 49.3218 217.265C50.0861 218.732 49.8313 219.242 48.1116 219.306C45.9459 219.306 43.7803 219.306 41.6146 219.306C38.9394 219.37 37.0286 221.475 37.0286 224.217C37.0286 226.768 39.0031 229 41.5509 229.064C47.3472 229.128 53.1435 229.064 58.876 229.128C59.7041 229.128 60.0226 228.809 60.0226 227.98C60.0226 225.174 60.0226 222.367 60.0226 219.561C60.0226 218.477 59.3856 217.648 58.9397 216.755C55.6276 210.314 52.2517 203.937 48.8759 197.559C47.0924 194.179 45.3727 190.735 43.5255 187.355C43.0796 186.462 43.2707 185.697 43.5255 184.868C45.1816 179.83 46.9013 174.792 48.5574 169.69C48.6211 169.562 48.6211 169.435 48.6848 169.371C55.3728 172.304 62.8251 173.899 70.596 173.899C78.0483 173.899 85.1822 172.432 91.6791 169.753C93.3352 173.516 95.0549 177.215 96.711 180.914C97.0932 181.743 97.0295 182.508 96.5199 183.337C93.3988 188.694 90.4052 194.052 87.2841 199.409C83.7809 205.531 80.2139 211.653 76.647 217.776C76.5196 217.967 76.3285 218.095 76.3285 218.286C76.0101 221.666 76.0738 225.046 76.2011 228.426C76.2011 229.064 76.7744 229.064 77.284 229.064C83.0802 229.064 88.8765 229.128 94.6091 229C96.9658 228.936 99.1314 226.895 98.9403 223.898C98.813 221.283 97.0295 219.37 94.4817 219.306C92.316 219.242 90.1504 219.306 87.9848 219.242C86.265 219.242 86.0102 218.732 86.8382 217.265C90.023 211.717 93.1441 206.105 96.3288 200.62C99.4499 195.199 102.571 189.779 105.883 184.422C107.093 182.445 106.647 180.786 105.819 178.937C103.781 174.473 101.743 170.009 99.641 165.608C115.246 155.851 125.692 138.44 125.692 118.606Z" fill="#66C9D2"/>
<path d="M81.7428 79.9588C84.17 79.9588 86.1377 77.9887 86.1377 75.5584C86.1377 73.1281 84.17 71.158 81.7428 71.158C79.3155 71.158 77.3478 73.1281 77.3478 75.5584C77.3478 77.9887 79.3155 79.9588 81.7428 79.9588Z" fill="white"/>
<path d="M64.0354 73.6451C65.1819 74.7293 66.01 76.1323 66.3285 77.8542C66.5195 79.0022 66.2648 79.4486 65.1183 79.4486C63.717 79.5123 62.5068 79.5761 61.9335 77.7267C61.4876 76.0685 59.9589 75.3032 58.2392 75.3032C56.5194 75.3032 55.2455 76.1323 54.4812 77.7267C53.9079 78.9384 50.341 81.1067 50.0862 78.5557C49.8314 76.0047 52.6977 72.8798 54.927 72.0507C57.9844 70.839 61.6787 71.4768 64.0354 73.6451Z" fill="white"/>
<path fill-rule="evenodd" clip-rule="evenodd" d="M71.2282 108.805C76.6802 108.805 79.4178 105.187 79.4178 102.646C79.4178 100.105 76.6802 96.4868 71.2282 96.4868C65.7762 96.4868 63.0386 100.105 63.0386 102.646C63.0386 105.187 65.7762 108.805 71.2282 108.805ZM71.2282 115.215C79.2983 115.215 85.8405 109.588 85.8405 102.646C85.8405 95.7043 79.2983 90.0769 71.2282 90.0769C63.158 90.0769 56.6159 95.7043 56.6159 102.646C56.6159 109.588 63.158 115.215 71.2282 115.215Z" fill="white"/>
</g>
<defs>
<clipPath id="clip0">
<rect width="110.256" height="172" fill="white" transform="translate(15.4359 57)"/>
</clipPath>
</defs>
</svg>
