<svg width="406" height="170" viewBox="0 0 406 170" fill="none" xmlns="http://www.w3.org/2000/svg">
<path d="M116 67.7494C115.984 66.0505 116.827 65.1306 118.589 65.1799C119.47 65.2046 120.293 65.0389 121.123 64.6218C123.751 65.1986 126.285 64.6405 128.873 64.3985C143.839 62.7417 158.313 58.3662 172.886 55C175.229 54.4995 177.45 53.8697 179.793 53.3692C182.833 52.6995 185.931 52.2201 188.02 49.5108C188.673 48.6485 189.819 48.1773 190.959 47.9576C193.428 47.4606 195.886 47.3407 198.359 46.718C199.627 46.3761 200.681 46.9717 201.405 48.1243C202.129 49.2768 201.473 50.2649 200.694 51.1237C199.979 51.9215 199.452 52.7873 198.986 53.7178C197.523 56.5704 194.591 57.8722 191.732 56.5341C189.059 55.2641 186.594 55.6354 183.995 56.2546C169.042 59.736 154.326 63.7272 139.203 66.5119C132.813 67.6539 126.365 68.6057 119.816 68.6739C118.428 68.7609 117.105 68.7868 116 67.7494Z" fill="white" stroke="white" stroke-width="2"/>
<path d="M9.31851 102.69C9.8377 102.906 9.78252 103.174 9.85116 103.417C10.0914 104.268 9.81551 105.609 11.1567 105.721C12.577 105.882 12.1547 104.619 12.2412 103.766C12.362 103.034 12.823 102.812 13.645 102.709C15.2443 102.576 15.7231 101.258 14.5817 100.462C10.2297 97.1079 11.8929 93.4928 13.1846 89.9533C15.3892 83.8508 17.6728 77.7964 20.7472 72.2236C23.7769 66.7241 27.7106 61.8759 33.7824 59.0338C34.8282 58.5639 35.8844 57.8992 35.1011 56.5167C34.273 55.2076 33.1273 56.019 32.4082 56.4866C26.3738 60.1563 21.4598 65.0114 18.4676 71.3384C15.2963 77.9589 12.486 84.6987 10.3188 91.6288C9.66402 93.9465 8.95406 96.5324 5.55258 96.775C4.28001 96.9056 4.22046 98.7808 5.60946 99.5261C7.3595 100.391 7.10445 101.342 6.4675 102.564C6.24375 102.931 6.17814 103.394 6.15728 103.783C6.08124 104.441 6.16334 105.196 6.9645 105.482C7.68659 105.721 7.96553 105.086 8.27879 104.572C8.47866 103.889 8.56513 103.036 9.31851 102.69Z" fill="white" stroke="white" stroke-width="2"/>
<g clip-path="url(#clip0)">
<path d="M138.014 60.8899C138.014 30.7601 113.859 6.30328 84.1007 6.30328C54.3426 6.30328 30.2498 30.7601 30.2498 60.8899C30.2498 61.205 30.2498 61.4572 30.2498 61.7723C30.2498 62.0245 30.2498 62.3396 30.2498 62.5918C30.2498 65.9325 30.6233 69.0841 31.3704 72.2358C31.4326 72.551 31.5572 72.8661 31.6194 73.1813C34.7944 86.9855 43.0744 98.7727 54.4049 106.4C54.4049 106.715 54.3426 107.093 54.2181 107.534C52.3505 113.144 50.7941 118.943 48.6151 124.427C47.121 128.272 49.1754 130.604 50.5451 133.378C53.8446 140.122 57.2686 146.741 60.7549 153.422C61.6265 155.061 62.4981 156.7 63.3697 158.402C64.1167 159.852 63.8677 160.356 62.1868 160.419C60.0701 160.419 57.9535 160.419 55.8368 160.419C53.222 160.482 51.3544 162.562 51.3544 165.273C51.3544 167.794 53.2843 170 55.7745 170.063C61.4398 170.126 67.105 170.063 72.708 170.126C73.5173 170.126 73.8286 169.811 73.8286 168.991C73.8286 166.218 73.8286 163.445 73.8286 160.671C73.8286 159.6 73.206 158.78 72.7703 157.898C69.533 151.531 66.2334 145.228 62.9339 138.925C61.1907 135.584 59.5098 132.18 57.7044 128.839C57.2686 127.957 57.4554 127.201 57.7044 126.381C59.3231 121.402 61.004 116.422 62.6226 111.379C62.6849 111.253 62.6849 111.127 62.7471 111.064C69.2839 113.964 76.5678 115.539 84.163 115.539C91.4469 115.539 98.4195 114.09 104.77 111.442C106.388 115.161 108.069 118.817 109.688 122.473C110.061 123.293 109.999 124.049 109.501 124.868C106.45 130.163 103.524 135.458 100.474 140.753C97.0499 146.804 93.5636 152.855 90.0773 158.906C89.9527 159.095 89.766 159.221 89.766 159.41C89.4547 162.751 89.517 166.092 89.6415 169.433C89.6415 170.063 90.2018 170.063 90.6998 170.063C96.3651 170.063 102.03 170.126 107.633 170C109.937 169.937 112.053 167.92 111.867 164.957C111.742 162.373 109.999 160.482 107.509 160.419C105.392 160.356 103.275 160.419 101.159 160.356C99.4778 160.356 99.2288 159.852 100.038 158.402C103.151 152.918 106.201 147.371 109.314 141.95C112.365 136.592 115.415 131.235 118.653 125.94C119.835 123.986 119.4 122.347 118.59 120.519C116.598 116.107 114.606 111.694 112.551 107.345C127.804 97.7011 138.014 80.4931 138.014 60.8899Z" fill="#66C9D2"/>
<path d="M95.0579 22.6918C97.4303 22.6918 99.3535 20.7446 99.3535 18.3426C99.3535 15.9405 97.4303 13.9933 95.0579 13.9933C92.6855 13.9933 90.7622 15.9405 90.7622 18.3426C90.7622 20.7446 92.6855 22.6918 95.0579 22.6918Z" fill="white"/>
<path d="M77.7508 16.4515C78.8714 17.5231 79.6807 18.9098 79.992 20.6117C80.1787 21.7463 79.9297 22.1875 78.8091 22.1875C77.4395 22.2506 76.2566 22.3136 75.6963 20.4856C75.2605 18.8468 73.7664 18.0904 72.0855 18.0904C70.4046 18.0904 69.1595 18.9098 68.4124 20.4856C67.8521 21.6833 64.3658 23.8264 64.1168 21.3051C63.8678 18.7837 66.6693 15.6951 68.8482 14.8757C71.8365 13.6781 75.4473 14.3084 77.7508 16.4515Z" fill="white"/>
<path fill-rule="evenodd" clip-rule="evenodd" d="M84.7809 51.203C90.1097 51.203 92.7854 47.6265 92.7854 45.1153C92.7854 42.6042 90.1097 39.0277 84.7809 39.0277C79.4522 39.0277 76.7765 42.6042 76.7765 45.1153C76.7765 47.6265 79.4522 51.203 84.7809 51.203ZM84.7809 57.5384C92.6687 57.5384 99.0629 51.9764 99.0629 45.1153C99.0629 38.2543 92.6687 32.6923 84.7809 32.6923C76.8932 32.6923 70.4989 38.2543 70.4989 45.1153C70.4989 51.9764 76.8932 57.5384 84.7809 57.5384Z" fill="white"/>
</g>
<path d="M393.419 110.246C392.9 110.461 392.955 110.729 392.887 110.972C392.646 111.823 392.922 113.164 391.581 113.277C390.161 113.437 390.583 112.174 390.497 111.321C390.376 110.59 389.915 110.368 389.093 110.264C387.493 110.132 387.015 108.814 388.156 108.018C392.508 104.663 390.845 101.048 389.553 97.5087C387.349 91.4062 385.065 85.3519 381.991 79.7791C378.961 74.2796 375.027 69.4313 368.955 66.5893C367.91 66.1194 366.853 65.4547 367.637 64.0722C368.465 62.7631 369.611 63.5745 370.33 64.0421C376.364 67.7118 381.278 72.5668 384.27 78.8939C387.441 85.5144 390.252 92.2542 392.419 99.1843C393.074 101.502 393.784 104.088 397.185 104.33C398.458 104.461 398.517 106.336 397.128 107.082C395.378 107.946 395.633 108.897 396.27 110.119C396.494 110.486 396.56 110.949 396.58 111.339C396.657 111.997 396.574 112.751 395.773 113.038C395.051 113.276 394.772 112.641 394.459 112.128C394.259 111.445 394.173 110.592 393.419 110.246Z" fill="white" stroke="white" stroke-width="2"/>
<path d="M288.614 67.7494C288.631 66.0505 287.787 65.1306 286.026 65.1799C285.145 65.2046 284.322 65.0389 283.492 64.6218C280.864 65.1986 278.33 64.6405 275.742 64.3985C260.775 62.7417 246.301 58.3662 231.729 55C229.386 54.4995 227.165 53.8697 224.822 53.3692C221.781 52.6995 218.683 52.2201 216.595 49.5108C215.941 48.6485 214.795 48.1773 213.656 47.9576C211.187 47.4606 208.728 47.3407 206.256 46.718C204.988 46.3761 203.933 46.9717 203.209 48.1243C202.485 49.2768 203.142 50.2649 203.921 51.1237C204.635 51.9215 205.163 52.7873 205.629 53.7178C207.092 56.5704 210.023 57.8722 212.883 56.5341C215.556 55.2641 218.021 55.6354 220.619 56.2546C235.573 59.736 250.288 63.7272 265.411 66.5119C271.802 67.6539 278.249 68.6057 284.799 68.6739C286.186 68.7609 287.509 68.7868 288.614 67.7494Z" fill="white" stroke="white" stroke-width="2"/>
<g clip-path="url(#clip1)">
<path d="M373.262 60.8899C373.262 30.7601 349.107 6.30328 319.348 6.30328C289.59 6.30328 265.498 30.7601 265.498 60.8899C265.498 61.205 265.498 61.4572 265.498 61.7723C265.498 62.0245 265.498 62.3396 265.498 62.5918C265.498 65.9325 265.871 69.0841 266.618 72.2358C266.68 72.551 266.805 72.8661 266.867 73.1813C270.042 86.9855 278.322 98.7727 289.653 106.4C289.653 106.715 289.59 107.093 289.466 107.534C287.598 113.144 286.042 118.943 283.863 124.427C282.369 128.272 284.423 130.604 285.793 133.378C289.092 140.122 292.516 146.741 296.003 153.422C296.874 155.061 297.746 156.7 298.617 158.402C299.365 159.852 299.115 160.356 297.435 160.419C295.318 160.419 293.201 160.419 291.085 160.419C288.47 160.482 286.602 162.562 286.602 165.273C286.602 167.794 288.532 170 291.022 170.063C296.688 170.126 302.353 170.063 307.956 170.126C308.765 170.126 309.076 169.811 309.076 168.991C309.076 166.218 309.076 163.445 309.076 160.671C309.076 159.6 308.454 158.78 308.018 157.898C304.781 151.531 301.481 145.228 298.182 138.925C296.439 135.584 294.758 132.18 292.952 128.839C292.516 127.957 292.703 127.201 292.952 126.381C294.571 121.402 296.252 116.422 297.87 111.379C297.933 111.253 297.933 111.127 297.995 111.064C304.532 113.964 311.816 115.539 319.411 115.539C326.695 115.539 333.667 114.09 340.017 111.442C341.636 115.161 343.317 118.817 344.935 122.473C345.309 123.293 345.247 124.049 344.749 124.868C341.698 130.163 338.772 135.458 335.722 140.753C332.298 146.804 328.811 152.855 325.325 158.906C325.201 159.095 325.014 159.221 325.014 159.41C324.702 162.751 324.765 166.092 324.889 169.433C324.889 170.063 325.45 170.063 325.948 170.063C331.613 170.063 337.278 170.126 342.881 170C345.184 169.937 347.301 167.92 347.114 164.957C346.99 162.373 345.247 160.482 342.757 160.419C340.64 160.356 338.523 160.419 336.406 160.356C334.726 160.356 334.477 159.852 335.286 158.402C338.399 152.918 341.449 147.371 344.562 141.95C347.612 136.592 350.663 131.235 353.9 125.94C355.083 123.986 354.647 122.347 353.838 120.519C351.846 116.107 349.854 111.694 347.799 107.345C363.052 97.7011 373.262 80.4931 373.262 60.8899Z" fill="#7551F1"/>
<path fill-rule="evenodd" clip-rule="evenodd" d="M305.306 33.6832C306.751 33.6832 307.922 34.8651 307.922 36.323C307.922 38.3587 309.043 40.4347 311.318 42.101C313.59 43.7652 316.858 44.8758 320.586 44.8758C324.314 44.8758 327.582 43.7652 329.854 42.101C332.129 40.4347 333.25 38.3587 333.25 36.323C333.25 34.8651 334.421 33.6832 335.866 33.6832C337.311 33.6832 338.482 34.8651 338.482 36.323C338.482 40.4687 336.182 43.989 332.927 46.3737C329.669 48.7603 325.297 50.1553 320.586 50.1553C315.875 50.1553 311.503 48.7603 308.245 46.3737C304.99 43.989 302.69 40.4687 302.69 36.323C302.69 34.8651 303.861 33.6832 305.306 33.6832Z" fill="white"/>
<path d="M312.999 16.4515C314.119 17.5231 314.929 18.9098 315.24 20.6117C315.427 21.7463 315.178 22.1875 314.057 22.1875C312.688 22.2506 311.505 22.3136 310.944 20.4856C310.509 18.8468 309.015 18.0904 307.334 18.0904C305.653 18.0904 304.408 18.9098 303.661 20.4856C303.1 21.6833 299.614 23.8264 299.365 21.3051C299.116 18.7837 301.917 15.6951 304.096 14.8757C307.085 13.6781 310.695 14.3084 312.999 16.4515Z" fill="white"/>
<path d="M340.201 16.4515C341.322 17.5231 342.131 18.9098 342.443 20.6117C342.629 21.7463 342.38 22.1875 341.26 22.1875C339.89 22.2506 338.707 22.3136 338.147 20.4856C337.711 18.8468 336.217 18.0904 334.536 18.0904C332.855 18.0904 331.61 18.9098 330.863 20.4856C330.303 21.6833 326.816 23.8264 326.567 21.3051C326.318 18.7837 329.12 15.6951 331.299 14.8757C334.287 13.6781 337.898 14.3084 340.201 16.4515Z" fill="white"/>
</g>
<defs>
<clipPath id="clip0">
<rect width="107.764" height="170" fill="white" transform="translate(30.2498)"/>
</clipPath>
<clipPath id="clip1">
<rect width="107.764" height="170" fill="white" transform="translate(265.498)"/>
</clipPath>
</defs>
</svg>
